<?xml version="1.0" encoding="utf-8"?>
<!-- Generator: Adobe Illustrator 22.1.0, SVG Export Plug-In . SVG Version: 6.00 Build 0)  -->
<svg version="1.1" id="Capa_1" xmlns="http://www.w3.org/2000/svg" xmlns:xlink="http://www.w3.org/1999/xlink" x="0px" y="0px"
	 viewBox="0 0 73.3 100" style="enable-background:new 0 0 73.3 100;" xml:space="preserve">
<g>
	<path d="M63.2,9.2C56,3.1,47.9,0,36.7,0S17.3,3.1,10.2,9.2C4.1,14.3,0,22.4,0,31.6c0,8.1,9.1,35.3,9.1,35.3c0,0.2,0.1,0.4,0.3,0.4
		l12.3,6.2c1.1,0.5,2,1.4,2.5,2.5c0.7,1.4,1.6,3.1,2.1,4.1c0.1,0.2,21.6,0.2,21.7,0c0.4-1.2,1.1-3.4,1.6-4.8
		c0.2-0.6,0.6-1.1,1.2-1.4l13.1-6.6c0.2-0.1,0.3-0.2,0.3-0.4c0,0,9.1-27.2,9.1-35.3C73.3,22.4,70.3,14.3,63.2,9.2z M21.9,60.1
		c-4.7,0-8.6-4.7-8.6-10.6s3.9-10.6,8.6-10.6c4.7,0,8.6,4.7,8.6,10.6C30.5,55.3,26.6,60.1,21.9,60.1z M39.7,70.4
		c0.1,0-1.2-1-3.1-1.1c-0.8,0-2.6,1.1-3,1.2c-3.2,0.3-3.1-2-3.1-3.1c0-1,1-3,2-4.1c1.7-1.7,2.6-3.3,3.5-5c0.2-0.5,0.9-0.5,1.2-0.1
		c1.1,1.6,2.5,3.3,3.4,4.9c0,0.1,2.1,3.2,2.1,4.2C42.7,69.3,42.1,70.7,39.7,70.4z M52.9,60.1c-4.7,0-8.6-4.7-8.6-10.6
		s3.9-10.6,8.6-10.6c4.7,0,8.6,4.7,8.6,10.6C61.5,55.3,57.6,60.1,52.9,60.1z"/>
	<path d="M56.1,77.5l-3.2-0.8c-0.2-0.1-0.4,0-0.6,0.2c-0.4,0.9-0.4,1.7-0.4,1.7c-2,4.1-3.2,5.8-5.1,7.1c-2.3,1.7-6.1,3-10.2,3
		c-5.1,0-7.8-1.4-10.2-3c-1.8-1.3-3-3-5.1-7.1l-0.1-0.1c-0.2-0.2-0.7-0.8-0.9-1.4c-0.1-0.3-0.4-0.5-0.7-0.4l-2.7,0.7
		c-0.6,0.1-0.8,0.5-0.7,0.8l2.8,9.4c0,0.1,0.1,0.2,0.2,0.3l5.9,4.9c0.1,0.1,0.1,0.1,0.2,0.2c2,5,6.1,7,11.1,7c2,0,5.1-1,6.1-2
		c2-1,4-3,5-5c0-0.1,0.1-0.1,0.1-0.2c0.7-0.5,5.1-4.3,5.9-4.9c0.1-0.1,0.1-0.2,0.2-0.3l2.8-9.4C56.6,77.9,56.4,77.6,56.1,77.5z"/>
</g>
</svg>
