<?xml version="1.0" encoding="UTF-8" standalone="no"?>
<svg
   xmlns:dc="http://purl.org/dc/elements/1.1/"
   xmlns:cc="http://creativecommons.org/ns#"
   xmlns:rdf="http://www.w3.org/1999/02/22-rdf-syntax-ns#"
   xmlns:svg="http://www.w3.org/2000/svg"
   xmlns="http://www.w3.org/2000/svg"
   xmlns:sodipodi="http://sodipodi.sourceforge.net/DTD/sodipodi-0.dtd"
   xmlns:inkscape="http://www.inkscape.org/namespaces/inkscape"
   width="6.9in"
   height="6.9in"
   version="1.1"
   viewBox="0 0 500 500"
   id="svg9"
   sodipodi:docname="driver-distance.svg"
   inkscape:version="0.92.3 (2405546, 2018-03-11)">
  <metadata
     id="metadata15">
    <rdf:RDF>
      <cc:Work
         rdf:about="">
        <dc:format>image/svg+xml</dc:format>
        <dc:type
           rdf:resource="http://purl.org/dc/dcmitype/StillImage" />
      </cc:Work>
    </rdf:RDF>
  </metadata>
  <defs
     id="defs13" />
  <sodipodi:namedview
     pagecolor="#ffffff"
     bordercolor="#666666"
     borderopacity="1"
     objecttolerance="10"
     gridtolerance="10"
     guidetolerance="10"
     inkscape:pageopacity="0"
     inkscape:pageshadow="2"
     inkscape:window-width="1920"
     inkscape:window-height="1053"
     id="namedview11"
     showgrid="false"
     inkscape:zoom="0.71256038"
     inkscape:cx="128.73924"
     inkscape:cy="570.81484"
     inkscape:window-x="425"
     inkscape:window-y="0"
     inkscape:window-maximized="1"
     inkscape:current-layer="svg9" />
  <path
     id="Selection"
     d="m46 299c-1.8 0.83-2.8 1.1-4.2 2.8-3.4 3.8-4 11-0.42 16 2.4 3.3 6.3 4.9 7.7 6.2 2.3 2.3 3.4 7.3 1.2 9.8-3.6 4.1-12-0.85-14-14-2.3-14 1.5-22 8-30l1.8 9.5zm410 84-23-12s-142-49-145-51c0 0-14-7.5-16-9.5-2.8-2.8-4.8-7.9-9.9-10-5.5-2.2-12 1.4-19-2.8l-111-105s-5.5-0.74-5-2.5l-0.9 4.4c6.1 3.8 106 95 112 103l-150-78c2 6.1 3.1 6.4 7.5 8.6l137 72c5.7 3 13 7.3 17 13l-4.9-3.3c-4-2-20-5.5-24-4.3-2.8 0.91-21 14-22 14-1.9 0.14-7.8-3.2-9.9-4.3-2.6 9.5-3.6 8.2-10 10l-29 7s-28-6.8-31-9c-14-8.3-15-2.3-27-5.3-2.6-0.91-8.6-2.5-11-5.3-1.7-1.9-2.1-6.2-2.6-9 0 0-17-98-20-102-1.8-2.6-22-14-22-14s1.4 74 0.23 77c-0.82 2.5-23 34-22 40 2.1 11 14 30 20 37 3 2.9 32 19 36 18 2.6-0.88 7.2-11 8.7-14 6.2 3.1 22 11 27 17 3.8 4.9 2.5 13 5 18 1.7 3.4 12 8.2 14 7.1 4.7-2.5 3.5-10 11-5.8l58 41 79 37s69 23 77 23c2.4 0.018 10-2.8 11-4.1 11-9.4-4.3-25-6.2-29 0 0-26-51-34-59-6.9-6.6-19-12-27-16 1.8-9-17-32-17-32-1.7-2.8-1.3-7.1-2.5-11-1.2-3.4-3.1-4.9-5.4-6.8 2.7-9.9 8.4-2.9 14-0.4l64 26 0.45-2.2s-42-17-47-22l142 52 14 2.5z" />
  <g
     id="g7"
     style="fill-rule:evenodd">
    <path
       d="m 360,0 v 70 l 70,68 -70,68 v 69 L 502,137 Z"
       id="path3"
       inkscape:connector-curvature="0"
       sodipodi:nodetypes="ccccccc" />
    <path
       d="m 262,2.7 v 70 l 70,68 -70,68 v 69 l 142,-138 z"
       id="path5"
       inkscape:connector-curvature="0"
       sodipodi:nodetypes="ccccccc" />
  </g>
</svg>
