<?xml version="1.0" encoding="utf-8"?>
<!-- Generator: Adobe Illustrator 22.1.0, SVG Export Plug-In . SVG Version: 6.00 Build 0)  -->
<svg version="1.0" id="Capa_1" xmlns="http://www.w3.org/2000/svg" xmlns:xlink="http://www.w3.org/1999/xlink" x="0px" y="0px"
	 viewBox="0 0 84 100" style="enable-background:new 0 0 84 100;" xml:space="preserve">
<path d="M82.9,41.5c-1.5-5.4-3-7.6-4.5-13.1c-2.3-8.2-4.6-18.4-6.8-26.6c-0.3-1.2-0.8-1.8-2.2-1.4c-8.2,2.7-16.5,3.6-24.8,2.4
	c-7.9-1.1-4-2.8-12.1-2.7c-9.7,0.2-17.5,4-23.3,11.8c-1.3,1.8-1.3,2.8-2,5.6c-0.6-2-0.8-3.9-0.2-6C7.5,10.3,2.7,2.9,1,3
	c-1.1,4-1.9,8.6-0.8,9.9c1.3,1.4,2.6,2.8,3.2,4.8C6.5,29.2,9.8,40.6,12.8,52l2.6,8.7c0.2,0.4,0.4,0.7,0.4,1
	c3.1,11.1,7,25.6,10.1,36.7c0.6,2,4.4,2.2,4.2,1.2C27.5,90,23.8,77,21.2,67.2C14.1,45.8,40.6,42.9,46.9,43c10.3,0,8.4,3,18.6,3.7
	c5.1,0.4,10.1,0.3,15-0.9C83.7,45,83.8,44.7,82.9,41.5z"/>
</svg>
