<?xml version="1.0" encoding="utf-8"?>
<!-- Generator: Adobe Illustrator 22.1.0, SVG Export Plug-In . SVG Version: 6.00 Build 0)  -->
<svg version="1.0" id="Capa_1" xmlns="http://www.w3.org/2000/svg" xmlns:xlink="http://www.w3.org/1999/xlink" x="0px" y="0px"
	 viewBox="0 0 100 100" style="enable-background:new 0 0 100 100;" xml:space="preserve">
<g>
	<path d="M53.7,37.2c-0.9,1.1-1.3,2.7-1.3,4.6v23.3h4.9V52h12.2v-6.4H57.3v-3.4H71v-6.7H57C55.7,35.5,54.6,36.1,53.7,37.2z"/>
	<path d="M33.2,37.2c-0.9,1.1-1.3,2.7-1.3,4.6v23.3h4.9V52H49v-6.4H36.8v-3.4h13.7v-6.7h-14C35.2,35.5,34.1,36.1,33.2,37.2z"/>
	<path d="M100.2,41.9h-8.1C88.9,24.4,75.1,10.6,57.6,7.5V0.4H42.5v7.1C25,10.6,11.2,24.4,8.1,41.9H0.2V57h7.9
		C11.2,74.5,25,88.3,42.5,91.5v8.9h15.1v-8.9C75.1,88.3,88.9,74.5,92.1,57h8.1V41.9z M53.8,84v-7.9v-2.1v-3.3H46v3.3v2.1V84
		c-16-1.8-28.8-14.6-30.5-30.7H21h2.1h3.3v-7.8h-3.3H21h-5.5C17.3,29.5,30,16.8,46,14.9v13.3h7.8V14.9c16.2,1.7,29,14.5,30.8,30.7
		H74.1v7.8h10.6C82.8,69.5,70,82.3,53.8,84z"/>
</g>
</svg>
