<?xml version="1.0" encoding="utf-8"?>
<!-- Generator: Adobe Illustrator 22.1.0, SVG Export Plug-In . SVG Version: 6.00 Build 0)  -->
<svg version="1.1" id="Capa_1" xmlns="http://www.w3.org/2000/svg" xmlns:xlink="http://www.w3.org/1999/xlink" x="0px" y="0px"
	 viewBox="0 0 100 100" style="enable-background:new 0 0 100 100;" xml:space="preserve">
<style type="text/css">
	.st0{display:none;}
	.st1{display:inline;fill:none;}
	.st2{display:inline;}
	.st3{fill:#010002;}
	.st4{stroke:#FFFFFF;stroke-width:9;stroke-miterlimit:10;}
	.st5{display:inline;fill:#010002;}
	.st6{display:inline;fill:#222222;}
	.st7{fill:#FFFFFF;}
	.st8{display:inline;fill:#FCFCFC;}
</style>
<path d="M92.5,41.6C89.4,24,75.5,10.2,58,7.1V0H42.9v7.1C25.4,10.2,11.6,24,8.5,41.5h-8v15.1h7.9C11.6,74.2,25.4,88,42.9,91.1v8.9
	H58v-8.9C75.6,88,89.4,74.2,92.5,56.7h8V41.6H92.5z M46.6,83.7C30.5,81.9,17.7,69.1,15.9,53h30.7V83.7z M46.6,21.4V30v15.2H15.9
	c1.8-16.1,14.6-28.9,30.7-30.7V21.4z M54.3,83.7V53h16.5h8.6h5.7C83.3,69.1,70.4,81.9,54.3,83.7z M79.4,45.2h-8.6H54.3V30v-8.6v-6.9
	c16.1,1.8,29,14.6,30.8,30.7H79.4z"/>
<g id="Capa_3" class="st0">
	<rect x="468.8" y="-211.8" class="st1" width="82.5" height="96.1"/>
	<text transform="matrix(0.5882 0 0 1 468.8486 -188.2974)" class="st2" style="font-family:'ArialMT'; font-size:61.2px;">F</text>
	<rect x="427.6" y="-157.4" class="st1" width="82.5" height="96.1"/>
	<text transform="matrix(1 0 0 1 427.5984 -121.3575)" class="st2" style="font-family:'ArialMT'; font-size:36px;">F</text>
	<g class="st2">
		<g>
			<g>
				<path d="M56.9,65.2H52V41.9c0-1.9,0.4-3.4,1.3-4.6c0.9-1.1,2-1.7,3.3-1.7h14v6.7H56.9v3.4h12.2v6.4H56.9V65.2z"/>
			</g>
			<g>
				<path d="M36.4,65.2h-4.9V41.9c0-1.9,0.4-3.4,1.3-4.6c0.9-1.1,2-1.7,3.3-1.7h14v6.7H36.4v3.4h12.2v6.4H36.4V65.2z"/>
			</g>
		</g>
		<polygon points="22.7,45.7 20.6,45.7 5.5,45.7 5.5,53.5 20.6,53.5 22.7,53.5 26,53.5 26,45.7 		"/>
		<polygon points="90.8,45.7 88.7,45.7 73.7,45.7 73.7,53.5 88.7,53.5 90.8,53.5 94.1,53.5 94.1,45.7 		"/>
		<polygon points="45.6,74.2 45.6,76.3 45.6,91.4 53.4,91.4 53.4,76.3 53.4,74.2 53.4,70.9 45.6,70.9 		"/>
		<polygon points="45.6,11.2 45.6,13.3 45.6,28.3 53.4,28.3 53.4,13.3 53.4,11.2 53.4,7.9 45.6,7.9 		"/>
		<path class="st3" d="M49.7,6.9C26.1,6.9,7,26,7,49.6s19.1,42.7,42.7,42.7s42.7-19.1,42.7-42.7S73.2,6.9,49.7,6.9z M49.7,84.4
			c-19.2,0-34.8-15.6-34.8-34.8s15.6-34.8,34.8-34.8s34.8,15.6,34.8,34.8S68.9,84.4,49.7,84.4z"/>
		<rect x="42.1" y="0.5" class="st3" width="15.1" height="12.3"/>
		<rect x="42.1" y="88.2" class="st3" width="15.1" height="12.3"/>
		<rect x="-0.3" y="42" class="st3" width="12.3" height="15.1"/>
		<rect x="87.4" y="42" class="st3" width="12.3" height="15.1"/>
	</g>
</g>
<g id="Capa_2_1_" class="st0">
	<g class="st2">
		<g>
			<path class="st4" d="M252.6,55.9c-1.2,8.4-1.2,16.8-2.5,25.2c-5.2,32.8-17.4,62.6-37.7,88.9c-29.5,38.3-67.8,63-114.9,73.8
				c-19.9,4.5-40,5.4-60.4,3.7c-24.8-2.1-48.3-8.5-70.6-19.3c-14.8-7.2-28.4-16.4-41-27.1c-17-14.5-31.1-31.3-42.3-50.6
				c-11.7-20-19.7-41.4-23.8-64.1c-1.9-10.3,0.9-13.9,11.2-15.9c8.3-1.6,16.5-3.6,25-3.8c6.8-0.2,9.8,2.1,11.2,8.9
				c2.9,13.9,6.6,27.5,13.1,40.1c23,44.9,59.2,72.9,108.9,81.8c44.5,8,84.7-3.1,119.9-31.5c29.3-23.6,47.1-54.4,53.3-91.3
				c7.1-42.4-3.2-81.1-29.1-115.3c-23.9-31.7-56-50.5-94.7-56.9c-40.3-6.6-77.3,2.4-110.8,26.2c-9,6.4-16.7,14.1-25.5,22.8
				c7.5-1.2,13.7-2.2,19.9-3.3c8.3-1.5,16.6-3.1,24.9-4.5s12.7,1.4,14.5,9.6C3-38.6,4.6-30.4,5.8-22.2C6.9-14.5,2.9-9.7-3.8-8.6
				C-32-3.9-60.2,1.2-88.4,6.3c-9.9,1.8-19.9,3.5-29.8,5.5c-7.9,1.6-14.7-0.2-16.6-11.3c-6.3-36.9-13-73.7-19.6-110.6c0-4,0-8,0-12
				c2.3-3.3,5.3-5.3,9.3-6c7.8-1.4,15.6-3,23.5-4.2c8.6-1.3,13,2,14.7,10.7c1,5.4,1.9,10.7,2.9,16.1c1.7,9.6,3.5,19.2,4.9,27.3
				c2.2-1.7,4.9-3.4,7.3-5.5s4.5-4.4,6.7-6.7c21.9-22.7,48.3-38,78-48c13.2-4.4,26.9-6.9,40.7-8.7c13.7,0,27.3,0,41,0
				c16.8,2.1,33.2,5.6,49.2,11.5c23.8,8.8,45.1,21.8,63.9,38.7C201.9-84,214-69.3,224-52.8c13.3,22,21.9,45.6,26.1,71
				c1.4,8.5,1.4,17.2,2.6,25.7C252.6,47.9,252.6,51.9,252.6,55.9z"/>
		</g>
	</g>
</g>
<g id="Capa_5" class="st0">
	<g class="st2">
		<g>
			<path d="M12.8,51.8c-3-11.5-6.3-22.9-9.4-34.4c-0.5-2.1-1.9-3.4-3.2-4.8C-1,11.4-0.2,6.7,1,2.7c1.7-0.1,6.5,7.4,6.1,8.7
				c-0.6,2.1-0.4,3.9,0.2,6c0.7-2.8,0.7-3.9,2-5.6C15.2,4,22.9,0.3,32.6,0c8.1-0.2,4.1,1.5,12.1,2.7C53,3.9,61.2,2.9,69.5,0.2
				c1.3-0.4,1.8,0.2,2.2,1.4C74,9.8,76.2,20,78.5,28.2c1.5,5.5,3,7.6,4.5,13.1c0.9,3.1,0.8,3.4-2.4,4.2c-4.9,1.2-9.9,1.3-15,0.9
				c-10.2-0.8-8.3-3.7-18.6-3.7c-6.3,0-32.8,2.8-25.7,24.3c2.7,9.7,6.3,22.7,8.9,32.4c0.3,1-3.6,0.7-4.2-1.2
				c-3.1-11.1-7.1-25.6-10.1-36.7c-0.1-0.3-0.2-0.5-0.4-1"/>
		</g>
	</g>
</g>
<g id="Capa_6" class="st0">
	<path class="st5" d="M94.1,83.1l11.3-21.2h20.1v-6.5h-22.1c-1.2,0-2.3,0.7-2.9,1.7l-8.6,16.3l-9.8-28.5c-0.5-1.3-1.6-2.2-3-2.2
		s-2.6,0.7-3.1,2l-8,18.9L57.9,2.7C57.6,1.2,56.1,0,54.7,0c-1.8,0-3,1.1-3.2,2.6L42,76.8l-8.5-44.2c-0.3-1.4-1.4-2.4-2.8-2.6
		c-1.4-0.2-2.8,0.6-3.4,1.8L16,55.4H-0.3v6.5h18.4c1.2,0,2.4-0.7,3-1.9L29,43.6l10.3,53.7c0.3,1.5,1.7,2.7,3.2,2.7h0.1
		c1.6,0,2.9-1.2,3.1-2.8l9.4-74l8.5,52.3c0.3,1.4,1.4,2.5,2.8,2.6c1.5,0.2,2.8-0.6,3.4-2l8.9-21l9.4,27.5c0.4,1.2,1.6,2.1,2.8,2.2
		C92.3,84.9,93.5,84.2,94.1,83.1z"/>
</g>
<g id="Capa_4" class="st0">
	<rect x="-464.1" y="-295.8" class="st6" width="104.7" height="37"/>
	<rect x="-470.4" y="-107.8" class="st6" width="44" height="37"/>
	<g class="st2">
		<polygon class="st7" points="-444,-89.3 -446.7,-89.3 -466.8,-89.3 -466.8,-86.9 -446.7,-86.9 -444,-86.9 -439.5,-86.9 
			-439.5,-89.3 		"/>
		<polygon class="st7" points="-454.4,-97.3 -454.4,-94.5 -454.4,-74.4 -451.9,-74.4 -451.9,-94.5 -451.9,-97.3 -451.9,-101.7 
			-454.4,-101.7 		"/>
		<path class="st7" d="M-453.2-102.4c-7.5,0-13.6,6.1-13.6,13.6s6.1,13.6,13.6,13.6s13.6-6.1,13.6-13.6S-445.7-102.4-453.2-102.4z
			 M-453.2-77.6c-6.1,0-11.1-5-11.1-11.1s5-11.1,11.1-11.1s11.1,5,11.1,11.1S-447-77.6-453.2-77.6z"/>
		<rect x="-455" y="-104.1" class="st7" width="3.6" height="3.9"/>
		<rect x="-455" y="-76" class="st7" width="3.6" height="3.9"/>
		<rect x="-469.2" y="-89.9" class="st7" width="3.9" height="3.6"/>
		<rect x="-441.2" y="-89.9" class="st7" width="3.9" height="3.6"/>
	</g>
	<g class="st2">
		<polygon class="st7" points="-445.3,-278.8 -447.5,-278.8 -463.9,-278.8 -463.9,-276.7 -447.5,-276.7 -445.3,-276.7 
			-441.7,-276.7 -441.7,-278.8 		"/>
		<polygon class="st7" points="-453.8,-284.7 -453.8,-282.5 -453.8,-266.1 -451.8,-266.1 -451.8,-282.5 -451.8,-284.7 
			-451.8,-288.3 -453.8,-288.3 		"/>
		<path class="st7" d="M-452.8-288.9c-6.1,0-11.1,5-11.1,11.1s5,11.1,11.1,11.1s11.1-5,11.1-11.1S-446.7-288.9-452.8-288.9z
			 M-452.8-268.7c-5,0-9.1-4.1-9.1-9.1s4.1-9.1,9.1-9.1s9.1,4.1,9.1,9.1C-443.8-272.8-447.8-268.7-452.8-268.7z"/>
		<rect x="-454.8" y="-290.3" class="st7" width="3.9" height="3.2"/>
		<rect x="-454.8" y="-267.5" class="st7" width="3.9" height="3.2"/>
		<rect x="-465.8" y="-279.7" class="st7" width="3.2" height="3.9"/>
		<rect x="-443.1" y="-279.7" class="st7" width="3.2" height="3.9"/>
	</g>
	<rect x="-163.6" y="-295.8" class="st6" width="262.2" height="37"/>
	<path class="st8" d="M-140.5-269.9l2.5-4.7h4.5v-1.5h-4.9c-0.3,0-0.5,0.1-0.6,0.4l-1.9,3.6l-2.2-6.3c-0.1-0.3-0.4-0.5-0.7-0.5
		s-0.6,0.2-0.7,0.4l-1.8,4.2l-2.3-13.6c-0.1-0.3-0.4-0.6-0.7-0.6c-0.4,0-0.7,0.2-0.7,0.6l-2.1,16.5l-1.9-9.8
		c-0.1-0.3-0.3-0.5-0.6-0.6c-0.3,0-0.6,0.1-0.8,0.4l-2.5,5.2h-3.6v1.5h4.1c0.3,0,0.5-0.2,0.7-0.4l1.8-3.7l2.3,12
		c0.1,0.3,0.4,0.6,0.7,0.6l0,0c0.4,0,0.6-0.3,0.7-0.6l2.1-16.5l1.9,11.7c0.1,0.3,0.3,0.6,0.6,0.6s0.6-0.1,0.8-0.4l2-4.7l2.1,6.1
		c0.1,0.3,0.3,0.5,0.6,0.5C-141-269.5-140.7-269.7-140.5-269.9z"/>
	<g class="st2">
		<g>
			<path class="st7" d="M-91.7-368.9c-0.6-1.9-2-6.9-2.6-8.8c-1.8-5.9-3.7-11.7-5.5-17.6c-0.1-0.3,0-0.5,0.1-0.7
				c0.4-0.5,0.7,0,1.1-0.5c0.2-0.3,0.4-0.4,0.7-0.6c1.4-1,3-1.5,4.7-1.5c0.6,0,1,0.2,1.2,0.7c0.1,0.2,0.6,0.6,1,0.7
				c1.5,0.1,2.9-0.1,4.2-0.8c1.2-0.6,2.5-0.6,3.7-1.4c0.8-0.5,1.7-1.3,2.6-1.3c0.6,0,1.1,0,1.7,0.1c0.2,0,0.4,0.1,0.5,0.4
				c1.7,4.6,3.2,8.3,4.9,12.9c0.2,0.5,0.2,0.2-0.4,0.1c-2.5-0.4-4.8,0.3-6.9,1.7c-1,0.7-1.6,1.3-2.7,1.8c-0.4,0.2-0.7,0.3-1.1,0.4
				c-1.2,0.2-2.2-0.4-2.5-1.6c-0.1-0.3-0.6-0.5-0.9-0.6c-0.9-0.2-1.7,0-2.6,0.2c-1,0.3-2,0.7-2.9,1.1c-0.3,0.1-1.4,0.9-1.3,1.2
				c1.1,3.3,3.1,9.8,4.2,13.1c0,0.1-0.1,0.1-0.1,0.2C-90.5-369.3-91.7-368.7-91.7-368.9z"/>
		</g>
	</g>
	<g class="st2">
		<g>
			<path class="st7" d="M-46.4-374.3c-0.6-2-1.8-5.4-2.5-7.4c-2-6.2-3.9-12.4-5.9-18.7c-0.1-0.3-0.1-0.5,0.1-0.7
				c0.4-0.5,0.8,0,1.1-0.6c0.2-0.3,0.5-0.5,0.7-0.7c1.5-1.1,3.1-1.6,4.9-1.6c0.6,0,2.6,0.2,2.8,0.8c0.1,0.2,0.7,0.7,1.1,0.7
				c1.6,0.1,2.6,0,4-0.7c1.5-0.7,1.3-0.6,2.2-1.7c0.8-0.6,1.8-1.4,2.7-1.4c0.6,0,1.2,0,1.8,0.1c0.3,0,0.4,0.1,0.5,0.4
				c1.8,4.9,2.9,7.2,4.7,12.1c0.2,0.6,0.2,0.2-0.4,0.1c-2.7-0.5-4.8-0.3-7,1.2c-1.1,0.7-2.6,1.4-3.8,1.9c-0.4,0.2-0.8,0.3-1.2,0.4
				c-1.2,0.2-3.6-0.5-3.9-1.7c-0.1-0.3-1.2,0-2.1,0.3c-1.1,0.3-2.5,0.8-3.5,1.2c-0.1,0.3,0.8,2.5,0.9,2.8c1.2,3.5,2.8,8.5,3.9,12
				c0,0.1-0.1,0.1-0.1,0.2C-45.1-374.8-46.3-374.2-46.4-374.3z"/>
		</g>
	</g>
	<g class="st2">
		<g>
			<path class="st7" d="M-59.8-194.1c0.3-2.2,0.3-3.2,0.6-5.5c1-6.9,2-13.8,2.9-20.7c0-0.3,0.2-0.5,0.5-0.7c0.6-0.3,0.6,1.8,1.2,1.5
				c0.3-0.2,0.7-0.2,1-0.3c1.9-0.4,3.7-0.1,5.5,0.7c0.6,0.3,2.4,1.4,2.3,2c0,0.2,0.7,1.1,1,1.4c1.5,1.2,2.2,1.1,3.9,1
				c1.8,0,1.5,0,2.9-0.6c1.1-0.2,2.3-0.5,3.3-0.1c0.6,0.2,1.1,0.5,1.7,0.9c0.2,0.2,0.3,0.3,0.3,0.6c-0.6,5.6-0.3,6.8-0.9,12.3
				c-0.1,0.6,0.1,0.3-0.4-0.1c-2.4-1.7-3.9-1.4-6.7-1.1c-1.4,0.2-3.2,0.1-4.5,0.1c-0.4,0-0.9-0.1-1.3-0.2c-1.3-0.3-3.4-1.7-4.3-3.1
				c0.1-0.4-1.3-0.1-2.2-0.3c-1.2-0.2-2.2-0.7-3.4-0.7c-0.2,0.2-0.2,1.3-0.3,1.6c-0.5,4-0.7,7.1-1.2,11.1
				C-57.9-194-59.8-193.9-59.8-194.1z"/>
		</g>
	</g>
	<g class="st2">
		<g>
			<path class="st7" d="M-95.2-276.9c-0.7-2.8-1.5-5.5-2.3-8.2c-0.1-0.5-0.4-0.8-0.8-1.2c-0.3-0.3-0.1-1.4,0.2-2.4
				c0.4,0,1.6,1.8,1.5,2.1c-0.1,0.5-0.1,0.9,0,1.4c0.2-0.7,0.2-0.9,0.5-1.3c1.4-1.9,3.3-2.8,5.6-2.8c1.9,0,1,0.4,2.9,0.6
				c2,0.3,4,0.6,5.9-0.1c0.3-0.1,0.4,0,0.5,0.3c0.5,2,1.1,3.9,1.6,5.9c0.4,1.3,0.7,2.6,1.1,3.9c0.2,0.8,0.2,0.8-0.6,1
				c-1.2,0.3-2.4,0.3-3.6,0.2c-2.4-0.2-2-0.9-4.5-0.9c-1.5,0-7.9-0.1-6.2,5c0.6,2.3,1.5,5.5,2.1,7.8c0.1,0.2-0.9,0.2-1-0.3
				c-0.8-2.7-1.7-6.1-2.4-8.8c0-0.1-0.1-0.1-0.1-0.2"/>
		</g>
	</g>
	<g class="st2">
		<g>
			<g>
				<path class="st7" d="M-396.7-272.6h-1.4v-6.5c0-0.5,0.1-1,0.4-1.3c0.2-0.3,0.5-0.5,0.9-0.5h3.9v1.9h-3.8v1h3.4v1.8h-3.4V-272.6z
					"/>
			</g>
			<g>
				<path class="st7" d="M-402.5-272.6h-1.4v-6.5c0-0.5,0.1-1,0.4-1.3c0.2-0.3,0.5-0.5,0.9-0.5h3.9v1.9h-3.8v1h3.4v1.8h-3.4V-272.6z
					"/>
			</g>
		</g>
		<polygon class="st7" points="-406.3,-278.1 -406.9,-278.1 -411.1,-278.1 -411.1,-275.9 -406.9,-275.9 -406.3,-275.9 
			-405.4,-275.9 -405.4,-278.1 		"/>
		<polygon class="st7" points="-387.2,-278.1 -387.8,-278.1 -392,-278.1 -392,-275.9 -387.8,-275.9 -387.2,-275.9 -386.3,-275.9 
			-386.3,-278.1 		"/>
		<polygon class="st7" points="-399.9,-270.1 -399.9,-269.5 -399.9,-265.3 -397.7,-265.3 -397.7,-269.5 -397.7,-270.1 -397.7,-271 
			-399.9,-271 		"/>
		<polygon class="st7" points="-399.9,-287.8 -399.9,-287.2 -399.9,-283 -397.7,-283 -397.7,-287.2 -397.7,-287.8 -397.7,-288.7 
			-399.9,-288.7 		"/>
		<path class="st7" d="M-398.8-288.9c-6.6,0-11.9,5.3-11.9,11.9s5.3,11.9,11.9,11.9s11.9-5.3,11.9-11.9S-392.2-288.9-398.8-288.9z
			 M-398.8-267.3c-5.4,0-9.7-4.4-9.7-9.7c0-5.4,4.4-9.7,9.7-9.7s9.7,4.4,9.7,9.7C-389-271.6-393.4-267.3-398.8-267.3z"/>
		<rect x="-400.9" y="-290.7" class="st7" width="4.2" height="3.5"/>
		<rect x="-400.9" y="-266.2" class="st7" width="4.2" height="3.5"/>
		<rect x="-412.7" y="-279.1" class="st7" width="3.5" height="4.2"/>
		<rect x="-388.2" y="-279.1" class="st7" width="3.5" height="4.2"/>
	</g>
</g>
</svg>
