<?xml version="1.0" encoding="utf-8"?>
<!-- Generator: Adobe Illustrator 22.1.0, SVG Export Plug-In . SVG Version: 6.00 Build 0)  -->
<svg version="1.1" id="Capa_1" xmlns="http://www.w3.org/2000/svg" xmlns:xlink="http://www.w3.org/1999/xlink" x="0px" y="0px"
	 viewBox="0 0 100 100" style="enable-background:new 0 0 100 100;" xml:space="preserve">
<style type="text/css">
	.st0{display:none;}
	.st1{display:inline;}
	.st2{display:inline;fill:#010002;}
	.st3{display:inline;fill:none;}
	.st4{display:inline;fill:#222222;}
	.st5{fill:#FFFFFF;}
	.st6{display:inline;fill:#FCFCFC;}
</style>
<g id="Capa_1_1_" class="st0">
	<polygon class="st1" points="190.1,27.1 148.1,27.1 -158.9,27.1 -158.9,65.1 148.1,65.1 190.1,65.1 258.1,65.1 258.1,27.1 	"/>
	<polygon class="st1" points="29.8,-89.4 29.8,-47.4 29.8,259.6 67.8,259.6 67.8,-47.4 67.8,-89.4 67.8,-157.4 29.8,-157.4 	"/>
	<path class="st2" d="M48.8-162.4c-115.2,0-208.5,93.3-208.5,208.5s93.3,208.5,208.5,208.5s208.5-93.3,208.5-208.5
		S164-162.4,48.8-162.4z M48.8,216.1c-93.9,0-170-76.1-170-170s76.1-170,170-170s170,76.1,170,170S142.7,216.1,48.8,216.1z"/>
	<rect x="12" y="-193.9" class="st2" width="73.7" height="60.3"/>
	<rect x="12" y="234.6" class="st2" width="73.7" height="60.3"/>
	<rect x="-195.1" y="9.3" class="st2" width="60.3" height="73.7"/>
	<rect x="233.4" y="9.2" class="st2" width="60.3" height="73.7"/>
</g>
<g id="Capa_3" class="st0">
	<rect x="313.1" y="-192.9" class="st3" width="82.5" height="96.1"/>
	<text transform="matrix(0.5882 0 0 1 313.1426 -169.373)" class="st1" style="font-family:'ArialMT'; font-size:61.2px;">F</text>
	<rect x="430.1" y="-157.4" class="st3" width="82.5" height="96.1"/>
	<text transform="matrix(1 0 0 1 430.1425 -121.3575)" class="st1" style="font-family:'ArialMT'; font-size:36px;">F</text>
	<g class="st1">
		<g>
			<path d="M84,122.4H60.1V8.4c0-9.3,2.2-16.7,6.5-22.3c4.2-5.5,9.6-8.2,16-8.2h68.6v32.7H84v16.8h59.7v31H84V122.4z"/>
		</g>
		<g>
			<path d="M-16.1,122.4H-40V8.4c0-9.3,2.2-16.7,6.5-22.3c4.2-5.5,9.6-8.2,16-8.2h68.6v32.7h-67.2v16.8h59.7v31h-59.7
				C-16.1,58.4-16.1,122.4-16.1,122.4z"/>
		</g>
	</g>
	<polygon class="st1" points="-83.2,27.1 -93.2,27.1 -166.9,27.1 -166.9,65.1 -93.2,65.1 -83.2,65.1 -66.9,65.1 -66.9,27.1 	"/>
	<polygon class="st1" points="249.9,27.1 239.8,27.1 166.2,27.1 166.2,65.1 239.8,65.1 249.9,65.1 266.2,65.1 266.2,27.1 	"/>
	<polygon class="st1" points="29.2,166.4 29.2,176.5 29.2,250.1 67.2,250.1 67.2,176.5 67.2,166.4 67.2,150.1 29.2,150.1 	"/>
	<polygon class="st1" points="29.2,-141.6 29.2,-131.6 29.2,-57.9 67.2,-57.9 67.2,-131.6 67.2,-141.6 67.2,-157.9 29.2,-157.9 	"/>
	<path class="st2" d="M48.8-162.4c-115.2,0-208.5,93.3-208.5,208.5s93.3,208.5,208.5,208.5s208.5-93.3,208.5-208.5
		S164-162.4,48.8-162.4z M48.8,216.1c-93.9,0-170-76.1-170-170s76.1-170,170-170s170,76.1,170,170S142.7,216.1,48.8,216.1z"/>
	<rect x="12" y="-193.9" class="st2" width="73.7" height="60.3"/>
	<rect x="12" y="234.6" class="st2" width="73.7" height="60.3"/>
	<rect x="-195.1" y="9.3" class="st2" width="60.3" height="73.7"/>
	<rect x="233.4" y="9.2" class="st2" width="60.3" height="73.7"/>
</g>
<path d="M100.7,46.2c-0.1-1.2-0.2-2.4-0.4-3.5c-1-6.4-3.2-12.5-6.4-18c-2.4-4.2-5.4-7.9-8.9-11.2c-4.4-4.4-9.7-7.7-15.5-9.9
	c-3.6-1.4-7.6-2.3-12-2.9H47.2c-3,0.4-6.5,1-9.9,2.2c-7.7,2.7-14,6.6-19.1,12.1l-0.3,0.3c-0.5,0.5-0.9,1-1.5,1.5
	c-0.5,0.4-1,0.8-1.4,1.1c-0.2,0.1-0.3,0.3-0.5,0.4L13,19.5l-1.6-8.9c0-0.4-0.1-0.8-0.2-1.3c-0.2-0.9-0.3-1.9-0.5-2.9
	c-0.3-1.6-0.9-2-2.4-1.7C7.1,4.8,5.9,5.1,4.7,5.3C3.9,5.5,3.2,5.6,2.4,5.7C1.9,5.8,1.4,6.1,1,6.5v2.6c0.5,2.6,0.9,5.2,1.4,7.9
	c1.2,6.8,2.4,13.8,3.5,20.7c0.1,0.9,0.4,1.5,0.9,1.8c0.4,0.3,1.1,0.4,2,0.2c2.2-0.5,4.5-0.9,6.7-1.3l0.8-0.1c1.7-0.3,3.4-0.6,5-0.9
	c5.3-1,10.8-2,16.3-2.9c1.2-0.2,1.6-0.9,1.5-2.2c-0.3-2-0.7-4-1.2-6.4c-0.3-1.5-0.8-1.9-2.3-1.6c-1.2,0.2-2.3,0.4-3.5,0.6
	c-0.9,0.2-1.9,0.4-2.8,0.5c-1.1,0.2-2.1,0.4-3.3,0.6c-0.5,0.1-1.1,0.2-1.7,0.3l-3.5,0.6l2.5-2.6c2.1-2.2,4.1-4.3,6.5-6
	c8.7-6.4,18.4-8.7,28.7-7C68.7,13,77,18.1,83.1,26.4c6.8,9.2,9.3,19.6,7.5,30.7c-1.6,9.9-6.2,18.1-13.8,24.3
	c-9.2,7.7-19.7,10.5-31,8.4c-12.6-2.2-22.1-9.5-28.1-21.6c-1.5-2.9-2.5-6.2-3.4-10.7C14,56.3,13.7,56,12.7,56c-0.1,0-0.1,0-0.2,0
	c-1.7,0-3.4,0.4-5.1,0.8c-0.3,0.1-0.6,0.1-1,0.2c-2,0.4-2.3,0.8-1.9,2.8c1,5.7,3,11.1,5.8,16.2c2.8,4.9,6.3,9.2,10.4,12.8
	c3.3,2.9,6.6,5.1,10.1,6.9c5.5,2.7,11.3,4.4,17.3,4.9c5.4,0.5,10.2,0.2,14.8-0.9c11.5-2.7,21-9,28.2-18.7c4.8-6.5,8-14,9.2-22.5
	c0.2-1.1,0.2-2.2,0.3-3.3c0.1-1,0.1-2.1,0.3-3.1v-2.9C100.9,48.2,100.8,47.2,100.7,46.2z"/>
<g id="Capa_5" class="st0">
	<g class="st1">
		<g>
			<path d="M-10.8-25.2c-8.3-31.5-17.4-62.8-25.7-94.3c-1.5-5.7-5.1-9.4-8.7-13.3c-3.2-3.4-1-16.2,2.1-27.1
				c4.7-0.2,17.9,20.2,16.7,24c-1.7,5.6-1.1,10.8,0.5,16.4c2-7.8,1.9-10.6,5.5-15.4c16-21.4,37.4-31.7,64-32.4
				c22.2-0.5,11.4,4.1,33.1,7.3c22.7,3.3,45.4,0.7,68-6.7c3.7-1.2,5,0.5,5.9,3.7c6.2,22.5,12.5,50.6,18.7,73
				c4.2,15,8.2,20.9,12.5,35.9c2.4,8.6,2.3,9.5-6.6,11.6C161.7-39.2,147.9-39,134-40c-28-2-22.9-10-51.1-10.1
				c-17.2-0.1-90.1,7.7-70.7,66.7c7.3,26.6,17.2,62.4,24.5,89c0.7,2.7-9.9,2-11.5-3.4C16.7,71.7,5.8,32-2.6,1.4
				c-0.2-0.8-0.6-1.5-1.2-2.7"/>
		</g>
	</g>
</g>
<g id="Capa_6" class="st0">
	<path class="st2" d="M161.2,154.7L201,79.8h71V56.7h-78c-4.2,0-8.2,2.4-10.1,6l-30.5,57.6L118.9,19.6c-1.6-4.6-5.7-7.7-10.5-7.8
		c-4.8-0.2-9.2,2.6-11.1,7.1L69.1,85.7l-35.9-215c-0.9-5.3-6.2-9.7-11.4-9.4c-6.2,0.2-10.7,3.8-11.4,9.2l-33.2,262L-52.7-23.7
		c-1-4.9-5-8.6-9.9-9.3c-4.8-0.7-9.7,2-11.9,6.5l-39.8,83.1H-172v23.1h64.8c4.4,0,8.5-2.6,10.5-6.6l27.8-57.9l36.4,189.6
		c1.1,5.5,5.8,9.4,11.4,9.4h0.5c5.6-0.2,10.2-4.4,11-10L23.7-57l30,184.8c0.9,5,4.9,8.8,10,9.3c5.2,0.5,10-2.3,11.9-6.9l31.3-74.3
		L140,153c1.6,4.3,5.5,7.4,10.1,7.9C154.8,161.1,159.1,158.7,161.2,154.7z"/>
</g>
<g id="Capa_4" class="st0">
	<rect x="-461.5" y="-295.8" class="st4" width="104.7" height="37"/>
	<rect x="-467.9" y="-107.8" class="st4" width="44" height="37"/>
	<g class="st1">
		<polygon class="st5" points="-441.4,-89.3 -444.2,-89.3 -464.3,-89.3 -464.3,-86.9 -444.2,-86.9 -441.4,-86.9 -437,-86.9 
			-437,-89.3 		"/>
		<polygon class="st5" points="-451.9,-97.3 -451.9,-94.5 -451.9,-74.4 -449.4,-74.4 -449.4,-94.5 -449.4,-97.3 -449.4,-101.7 
			-451.9,-101.7 		"/>
		<path class="st5" d="M-450.6-102.4c-7.5,0-13.6,6.1-13.6,13.6s6.1,13.6,13.6,13.6s13.6-6.1,13.6-13.6S-443.1-102.4-450.6-102.4z
			 M-450.6-77.6c-6.1,0-11.1-5-11.1-11.1s5-11.1,11.1-11.1s11.1,5,11.1,11.1S-444.5-77.6-450.6-77.6z"/>
		<rect x="-452.4" y="-104.1" class="st5" width="3.6" height="3.9"/>
		<rect x="-452.4" y="-76" class="st5" width="3.6" height="3.9"/>
		<rect x="-466.7" y="-89.9" class="st5" width="3.9" height="3.6"/>
		<rect x="-438.6" y="-89.9" class="st5" width="3.9" height="3.6"/>
	</g>
	<g class="st1">
		<polygon class="st5" points="-442.7,-278.8 -445,-278.8 -461.3,-278.8 -461.3,-276.7 -445,-276.7 -442.7,-276.7 -439.1,-276.7 
			-439.1,-278.8 		"/>
		<polygon class="st5" points="-451.3,-284.7 -451.3,-282.5 -451.3,-266.1 -449.3,-266.1 -449.3,-282.5 -449.3,-284.7 
			-449.3,-288.3 -451.3,-288.3 		"/>
		<path class="st5" d="M-450.3-288.9c-6.1,0-11.1,5-11.1,11.1s5,11.1,11.1,11.1s11.1-5,11.1-11.1S-444.1-288.9-450.3-288.9z
			 M-450.3-268.7c-5,0-9.1-4.1-9.1-9.1s4.1-9.1,9.1-9.1s9.1,4.1,9.1,9.1C-441.2-272.8-445.3-268.7-450.3-268.7z"/>
		<rect x="-452.2" y="-290.3" class="st5" width="3.9" height="3.2"/>
		<rect x="-452.2" y="-267.5" class="st5" width="3.9" height="3.2"/>
		<rect x="-463.3" y="-279.7" class="st5" width="3.2" height="3.9"/>
		<rect x="-440.5" y="-279.7" class="st5" width="3.2" height="3.9"/>
	</g>
	<rect x="-161" y="-295.8" class="st4" width="262.2" height="37"/>
	<path class="st6" d="M-138-269.9l2.5-4.7h4.5v-1.5h-4.9c-0.3,0-0.5,0.1-0.6,0.4l-1.9,3.6l-2.2-6.3c-0.1-0.3-0.4-0.5-0.7-0.5
		s-0.6,0.2-0.7,0.4l-1.8,4.2l-2.3-13.6c-0.1-0.3-0.4-0.6-0.7-0.6c-0.4,0-0.7,0.2-0.7,0.6l-2.1,16.5l-1.9-9.8
		c-0.1-0.3-0.3-0.5-0.6-0.6c-0.3,0-0.6,0.1-0.8,0.4l-2.5,5.2h-3.6v1.5h4.1c0.3,0,0.5-0.2,0.7-0.4l1.8-3.7l2.3,12
		c0.1,0.3,0.4,0.6,0.7,0.6l0,0c0.4,0,0.6-0.3,0.7-0.6l2.1-16.5l1.9,11.7c0.1,0.3,0.3,0.6,0.6,0.6s0.6-0.1,0.8-0.4l2-4.7l2.1,6.1
		c0.1,0.3,0.3,0.5,0.6,0.5C-138.4-269.5-138.1-269.7-138-269.9z"/>
	<g class="st1">
		<g>
			<path class="st5" d="M-89.2-368.9c-0.6-1.9-2-6.9-2.6-8.8c-1.8-5.9-3.7-11.7-5.5-17.6c-0.1-0.3,0-0.5,0.1-0.7
				c0.4-0.5,0.7,0,1.1-0.5c0.2-0.3,0.4-0.4,0.7-0.6c1.4-1,3-1.5,4.7-1.5c0.6,0,1,0.2,1.2,0.7c0.1,0.2,0.6,0.6,1,0.7
				c1.5,0.1,2.9-0.1,4.2-0.8c1.2-0.6,2.5-0.6,3.7-1.4c0.8-0.5,1.7-1.3,2.6-1.3c0.6,0,1.1,0,1.7,0.1c0.2,0,0.4,0.1,0.5,0.4
				c1.7,4.6,3.2,8.3,4.9,12.9c0.2,0.5,0.2,0.2-0.4,0.1c-2.5-0.4-4.8,0.3-6.9,1.7c-1,0.7-1.6,1.3-2.7,1.8c-0.4,0.2-0.7,0.3-1.1,0.4
				c-1.2,0.2-2.2-0.4-2.5-1.6c-0.1-0.3-0.6-0.5-0.9-0.6c-0.9-0.2-1.7,0-2.6,0.2c-1,0.3-2,0.7-2.9,1.1c-0.3,0.1-1.4,0.9-1.3,1.2
				c1.1,3.3,3.1,9.8,4.2,13.1c0,0.1-0.1,0.1-0.1,0.2C-88-369.3-89.1-368.7-89.2-368.9z"/>
		</g>
	</g>
	<g class="st1">
		<g>
			<path class="st5" d="M-43.8-374.3c-0.6-2-1.8-5.4-2.5-7.4c-2-6.2-3.9-12.4-5.9-18.7c-0.1-0.3-0.1-0.5,0.1-0.7
				c0.4-0.5,0.8,0,1.1-0.6c0.2-0.3,0.5-0.5,0.7-0.7c1.5-1.1,3.1-1.6,4.9-1.6c0.6,0,2.6,0.2,2.8,0.8c0.1,0.2,0.7,0.7,1.1,0.7
				c1.6,0.1,2.6,0,4-0.7c1.5-0.7,1.3-0.6,2.2-1.7c0.8-0.6,1.8-1.4,2.7-1.4c0.6,0,1.2,0,1.8,0.1c0.3,0,0.4,0.1,0.5,0.4
				c1.8,4.9,2.9,7.2,4.7,12.1c0.2,0.6,0.2,0.2-0.4,0.1c-2.7-0.5-4.8-0.3-7,1.2c-1.1,0.7-2.6,1.4-3.8,1.9c-0.4,0.2-0.8,0.3-1.2,0.4
				c-1.2,0.2-3.6-0.5-3.9-1.7c-0.1-0.3-1.2,0-2.1,0.3c-1.1,0.3-2.5,0.8-3.5,1.2c-0.1,0.3,0.8,2.5,0.9,2.8c1.2,3.5,2.8,8.5,3.9,12
				c0,0.1-0.1,0.1-0.1,0.2C-42.6-374.8-43.8-374.2-43.8-374.3z"/>
		</g>
	</g>
	<g class="st1">
		<g>
			<path class="st5" d="M-57.2-194.1c0.3-2.2,0.3-3.2,0.6-5.5c1-6.9,2-13.8,2.9-20.7c0-0.3,0.2-0.5,0.5-0.7c0.6-0.3,0.6,1.8,1.2,1.5
				c0.3-0.2,0.7-0.2,1-0.3c1.9-0.4,3.7-0.1,5.5,0.7c0.6,0.3,2.4,1.4,2.3,2c0,0.2,0.7,1.1,1,1.4c1.5,1.2,2.2,1.1,3.9,1
				c1.8,0,1.5,0,2.9-0.6c1.1-0.2,2.3-0.5,3.3-0.1c0.6,0.2,1.1,0.5,1.7,0.9c0.2,0.2,0.3,0.3,0.3,0.6c-0.6,5.6-0.3,6.8-0.9,12.3
				c-0.1,0.6,0.1,0.3-0.4-0.1c-2.4-1.7-3.9-1.4-6.7-1.1c-1.4,0.2-3.2,0.1-4.5,0.1c-0.4,0-0.9-0.1-1.3-0.2c-1.3-0.3-3.4-1.7-4.3-3.1
				c0.1-0.4-1.3-0.1-2.2-0.3c-1.2-0.2-2.2-0.7-3.4-0.7c-0.2,0.2-0.2,1.3-0.3,1.6c-0.5,4-0.7,7.1-1.2,11.1
				C-55.4-194-57.2-193.9-57.2-194.1z"/>
		</g>
	</g>
	<g class="st1">
		<g>
			<path class="st5" d="M-92.6-276.9c-0.7-2.8-1.5-5.5-2.3-8.2c-0.1-0.5-0.4-0.8-0.8-1.2c-0.3-0.3-0.1-1.4,0.2-2.4
				c0.4,0,1.6,1.8,1.5,2.1c-0.1,0.5-0.1,0.9,0,1.4c0.2-0.7,0.2-0.9,0.5-1.3c1.4-1.9,3.3-2.8,5.6-2.8c1.9,0,1,0.4,2.9,0.6
				c2,0.3,4,0.6,5.9-0.1c0.3-0.1,0.4,0,0.5,0.3c0.5,2,1.1,3.9,1.6,5.9c0.4,1.3,0.7,2.6,1.1,3.9c0.2,0.8,0.2,0.8-0.6,1
				c-1.2,0.3-2.4,0.3-3.6,0.2c-2.4-0.2-2-0.9-4.5-0.9c-1.5,0-7.9-0.1-6.2,5c0.6,2.3,1.5,5.5,2.1,7.8c0.1,0.2-0.9,0.2-1-0.3
				c-0.8-2.7-1.7-6.1-2.4-8.8c0-0.1-0.1-0.1-0.1-0.2"/>
		</g>
	</g>
	<g class="st1">
		<g>
			<g>
				<path class="st5" d="M-394.2-272.6h-1.4v-6.5c0-0.5,0.1-1,0.4-1.3c0.2-0.3,0.5-0.5,0.9-0.5h3.9v1.9h-3.8v1h3.4v1.8h-3.4V-272.6z
					"/>
			</g>
			<g>
				<path class="st5" d="M-399.9-272.6h-1.4v-6.5c0-0.5,0.1-1,0.4-1.3c0.2-0.3,0.5-0.5,0.9-0.5h3.9v1.9h-3.8v1h3.4v1.8h-3.4V-272.6z
					"/>
			</g>
		</g>
		<polygon class="st5" points="-403.8,-278.1 -404.4,-278.1 -408.6,-278.1 -408.6,-275.9 -404.4,-275.9 -403.8,-275.9 
			-402.8,-275.9 -402.8,-278.1 		"/>
		<polygon class="st5" points="-384.7,-278.1 -385.3,-278.1 -389.5,-278.1 -389.5,-275.9 -385.3,-275.9 -384.7,-275.9 
			-383.8,-275.9 -383.8,-278.1 		"/>
		<polygon class="st5" points="-397.3,-270.1 -397.3,-269.5 -397.3,-265.3 -395.2,-265.3 -395.2,-269.5 -395.2,-270.1 -395.2,-271 
			-397.3,-271 		"/>
		<polygon class="st5" points="-397.3,-287.8 -397.3,-287.2 -397.3,-283 -395.2,-283 -395.2,-287.2 -395.2,-287.8 -395.2,-288.7 
			-397.3,-288.7 		"/>
		<path class="st5" d="M-396.2-288.9c-6.6,0-11.9,5.3-11.9,11.9s5.3,11.9,11.9,11.9s11.9-5.3,11.9-11.9S-389.6-288.9-396.2-288.9z
			 M-396.2-267.3c-5.4,0-9.7-4.4-9.7-9.7c0-5.4,4.4-9.7,9.7-9.7s9.7,4.4,9.7,9.7C-386.5-271.6-390.8-267.3-396.2-267.3z"/>
		<rect x="-398.3" y="-290.7" class="st5" width="4.2" height="3.5"/>
		<rect x="-398.3" y="-266.2" class="st5" width="4.2" height="3.5"/>
		<rect x="-410.2" y="-279.1" class="st5" width="3.5" height="4.2"/>
		<rect x="-385.6" y="-279.1" class="st5" width="3.5" height="4.2"/>
	</g>
</g>
</svg>
