<?xml version="1.0" encoding="utf-8"?>
<!-- Generator: Adobe Illustrator 22.1.0, SVG Export Plug-In . SVG Version: 6.00 Build 0)  -->
<svg version="1.0" id="Capa_1" xmlns="http://www.w3.org/2000/svg" xmlns:xlink="http://www.w3.org/1999/xlink" x="0px" y="0px"
	 viewBox="0 0 100 79" style="enable-background:new 0 0 100 79;" xml:space="preserve">
<path d="M82.3,43.9c-1,0-1.8,0.5-2.3,1.4l-6.9,13l-7.8-22.7c-0.4-1-1.3-1.7-2.4-1.8c-1.1,0-2.1,0.6-2.5,1.6l-6.3,15L46.1,2
	c-0.2-1.2-1.4-2.2-2.6-2.1c-1.4,0-2.4,0.9-2.6,2.1l-7.5,59l-6.7-35.2c-0.2-1.1-1.1-1.9-2.2-2.1c-1.1-0.2-2.2,0.5-2.7,1.5l-9,18.7
	h-13v5.2h14.6c1,0,1.9-0.6,2.4-1.5l6.3-13.1l8.2,42.7c0.2,1.2,1.3,2.1,2.6,2.1h0.1c1.3,0,2.3-1,2.5-2.3l7.5-58.9l6.7,41.6
	c0.2,1.1,1.1,2,2.3,2.1c1.2,0.1,2.2-0.5,2.7-1.6l7-16.7l7.5,21.9c0.4,1,1.2,1.7,2.3,1.8c1.1,0,2.1-0.5,2.5-1.4l9-16.9h16v-5.2H82.3z
	"/>
</svg>
