<svg width="19in" height="19in" version="1.1" viewBox="0 0 1368 1368" xmlns="http://www.w3.org/2000/svg"><path id="Auswahl" transform="scale(.75)" d="m1375 0c-11 7.3-22 14-32 17-456 101-935 160-1344 256v57c354-82 743-156 1074-209 138-18 276-53 363-47 2.5-0.16 6.8-0.39 9.1 0 8.5 3.5 9.5 13 19 16 4.1 2 11 0.36 16 0l33-6.5c3.7-0.69 13-2.6 16-1.3 10 4 2.7 20 7.9 29 2.9 6 11 7.2 13 13 2.1 5.5-1.6 14-3.3 19-4 11-12 37-19 45-8 9.3-39 23-52 31-20 11-51 39-69 55-16 14-18 10-24 17-11 15-14 33-21 48-19 30-30 55-40 88-11 28-18 57-24 87-1.6 5.9-2.9 15-8.3 19-6.7 6.3-21-1.3-23 16-0.4 6.4 1.1 12 5.7 16 5.2 4.4 13 2.4 13 12-11 52-6.3 104-12 151-5.3 0-21 0.93-27-1.9-5.3-4-17-22-21-28-16-21-33-43-52-61-9.7-10-6.1-14-11-20-4-5.7-13-6.2-20-6.4v11l-29-4.3-25 6c-8 0.27-16-6.7-28-5.2-15 2-17 17-27 11-12-6.7-6.6-15-6.3-24 0.27-6.4-3-9.5-3.3-15l1.5-11-2.7-17c-1.9-5.1-7.5-4-12-10l-4.7-9.9c-2.7-4-21-17-25-17-5.5-0.67-10 4.8-16 6l-1.8-0.18-3.3 1.3c-7.1 2.2-9.3 3.6-13 7.8l-31 5.5c-1.6-3.2-2.9-6.8-7.2-7.5-4-0.67-8.3 3.6-11 5.9-11 8.9-10 8.8-20 19-2.8 2.8-7.1 6.4-9.1 9.9-5.3 8.9 4.1 12 2.7 21-1.3 6.7-19 35-17 44 1.9 13 14 21 13 36 9.3 3.5 8 5.7 15 9.2 4.7 2.3 7.5 1.3 15 5.2 14 7.7 13 11 20 17 5.2 4.3 11 5.7 13 13 1.9 6.7-3.6 14-5.9 21l9.2 1.9 3.6-33 33 19h20l11-13c-1.6 8-6.7 22-4.7 29 2 6.8 7.1 7.6 9.7 16l3.7 25c1.9 6.1 6 10 4.3 16-2.7 6.7-17 18-23 23-25 22-21 14-36 24l-20 17c-9.3 5.5-8-3.6-24 11 0.35-3.2 0.45-8 0-11-8-25-40 3.5-48 4.8-5.6 1.1-10-4.2-16-3.9-3.3 0.13-6.4 2-9.1 4-19 15-2.4 24 5.5 37 6.7 12 13 8.3 25 9.2l-6.8 15-49 45c-7.5-10-16-0.67-20 7.3-11 2.7-9.7 13-11 21l-2.5 13c0.13 4.3 2.3 7.3 1.5 11-1.3 6.7-12 13-8 20 6.7 10 20-15 28-4.4 3.3 5.3 7.2 23 4.3 28-3.2 4.5-11 8.8-13 17-2.7 10 8 23 19 23 8-0.13 9.1-5.6 19-6.5-4.9 15-4.8 24-3.5 39v15l17 64 2.3 33c-2.4 19-6.7 11-4.9 36 0.93 13-9.4 19-10 29-0.67 6.7 8.1 17 8.4 33v21c0.53 11 5.2 25 1.9 35-10 21-29 27-46 36-21 9.2-19 17-21 38-12-0.8-19 5.3-28 11 0.27 13-4.5 17 3.6 29 8 11 21 15 33 17 27 4.7 44 5.5 69-6.1 13-6.7 27-23 40-25 6.8-0.93 9.9 2.3 15 3.2 6.7 1.1 14-3.5 20-6.1 19-9.3 31-11 29-35 0.13-5.9-2-14 0-19 1.6-5.2 6.5-6.9 9.1-11 1.7-4 0.75-13 0-17-1.5-15-15-37-15-44 0.4-6.7 6.9-11 9.9-20l5.2-25 8.1-28 4.3-25v-19l3.5-19-2.9-35c0.27-17-6.7-36-9.9-53 28 1.3 35 15 55 16 41-6.7 78-10 121-15 67-3.6 114-12 169-43 4-2 13-7.7 17-6.9 8 1.3 16 25 21 33l43 59c8 8 27 23 31 32l-24 10c-37 17-61 33-92 60-20 14-32 35-52 45-4-21-27-19-32-11-10 17 10 39 2.4 53l-48 65c-9.3 16-29 48-37 64l-16 33-8.1 19c-9.3 16-16 13-25 29l-43 95c-8 19-15 37-27 53-60-2.4-51-6.4-76 13-5.5 11-10 17-12 28l0.99 39h113c3.7 0 10 0.4 13-1.9 3.7-2.7 11-29 13-35l16-43c8-15 38-52 49-65l47-55 16-20 15-15 48-56c16-16 29-25 32-28l7.3-10c3.6-5.1 8.8-10 13-15 17-17 35-31 53-45 32-27 45-36 83-55 62-31 49-30 104-40 48-9.6 44-3.8 88-3.3 55 23 119 26 174 28v-1279c1.2-64-0.46-76 0-94zm-3.1 431c4.6 30-12 55-19 81l-10 17c-2.1 8 8.2 14 8.7 24 0.53 13-10 24-7.6 43-16-0.27-12 1.2-25 7.3l4.3-29c7.6-18 29-144 49-143zm-51 182c7.7 9.3 13 8.4 15 13 1.2 15-3.9 30-6.7 44-1.5 3.7-4.1 7.7-8.5 7.9-7.3 0-7.5-9.6-7.1-15l0.68-1.2c1.1-15 0.8-37 6.9-49zm-296 241c1.5 21 7.5 19 10 29 1.2 3.9 0.8 8.5-3.5 10-6.1 2.7-9.6-4.5-16-7.7-7.6-3.3-15-3.1-22-2.7 5.3-20 12-24 31-29zm-66 104c7.6 9.3 20 18 0 24zm508 303c1.1 0 2.1 0.076 3 0.24 8 1.3 35 19 44 24 5.3 3.6 22 11 24 16 5.3 13-12 17-20 20-53 20-104 49-143 81v-1.1c-11 9.3-59 47-69 52-6.7-11-17-33-21-45-1.7-5.3-5-15-4-20 0.67-6.1 8.4-13 13-17l53-48c28-23 60-43 95-56 7-2.3 17-5.9 25-5.8zm-218 163c7.1 16 9.1 22 12 35 2.8 9.3 9.2 25 7.2 35-2.7 8-21 27-28 35l-67 76c-9.3 9.3-20 27-32 31 2.1-8 6.9-16 7.7-24v-11c1.3-11 16-42 21-53l45-79z"/></svg>
