<?xml version="1.0" encoding="UTF-8" standalone="no"?>
<svg
   xmlns="http://www.w3.org/2000/svg"
   style="enable-background:new 0 0 100 79;"
   viewBox="0 0 100 79"
   y="0px"
   x="0px"
   id="Capa_1"
   version="1.0">
<path
   id="path2"
   d="M 54.297044,67.838424 46.1,7.4187192 c -0.2,-1.2 -1.4,-2.2 -2.6,-2.1 -1.4,0 -2.4,0.9 -2.6,2.1 L 33.4,62.083744 26.7,25.8 c -0.2,-1.1 -1.1,-1.9 -2.2,-2.1 -1.1,-0.2 -2.2,0.5 -2.7,1.5 l -9,18.7 h -13 v 5.2 h 14.6 c 1,0 1.9,-0.6 2.4,-1.5 l 6.3,-13.1 8.2,42.7 c 0.2,1.2 1.3,2.1 2.6,2.1 H 34 c 1.3,0 2.3,-1 2.5,-2.3 l 7.204434,-54.762068 5.8133,48.693595 c 0.2,1.1 1.1,2 2.3,2.1 l 48.083744,-0.19064 v -5.2 z" />
</svg>
