<svg enable-background="new 0 0 100 67.1" version="1.0" viewBox="0 0 100 67" xml:space="preserve" xmlns="http://www.w3.org/2000/svg" xmlns:xlink="http://www.w3.org/1999/xlink">
	<path d="m68 22c-0.55 0.6-0.25-0.091 0 0z"/>
	<path d="m100 5.6c-4.6 1.5-9 4.1-14 6.1-5.1 2.4-10 5.1-15 7.3-3.1-0.24-6.5 0.8-9.7 1.2-4.6 0.59-9 2-13 3.1 2.2-3.1 5.7-4.4 8.2-7.2 5.8-5.5 12-11 18-16-3.4-1.3-7.4 2.2-9.8 4.8-5.9 5.3-12 11-17 16-2.2 1.2-0.53-3.6-3.2-1.2-3.1 0.92 1 2.2-0.84 3.5 1.4 1.3-3.2 2.5-3.5 3.7-7 4.1-14 8.2-21 13-6.4 3.9-13 8.1-19 12 2.1 1.2 6.1-3.3 8.8-4.5 8.1-5.3 16-10 25-15 3.7-1.8 7-4.5 11-5.9 3.2-1.3 0.19 2.1 2.4 3.4 1.5 3.4-4.7 2.1-6.8 3.9-11 4.7-22 9.5-32 15-4 4.7 3.7-0.086 5.9-0.94 8.5-4.1 20-9.6 27-13 1.7-1.2 6.2-2.7 6.6-2.6-2.4 3.1-5.9 5.7-8.1 8.4 0.21 4.1-5 4.4-5.1 8.4-0.48 0.72-2.6-0.39-3.1 1.1 2.9-1-3.4 1.9-4.1 2.3-5.3 0.41-2.3 8.3 1.8 5 1.8 0.38 2.8 3.2 5.1 2.1 0.71 5.5 6.5-1.1 8.4 1.6-2 2.5-6.1 2.2-9.3 3-2.8 1.1 0.19 2.7 2 1.5 3.4-1.9 6.1-0.28 9.3-0.2 3.1-0.39 6.4-2.2 8.4 0.9 4.2 0.45 1.4-4.4 1.6-5.3 2.9-2-2.2-2.6-2.1-3.6 2.9-3 6-1 9.3 0.052 2.3 0.32 4.2 5.1 6.4 1.4 1.5-3.5-4.8-6.6-5.1-2.2-2.2 0.11-2.9-4.4-0.85-1.1 1.6-1.1-3-3.5 0.75-3.5 1.1-1.7 3.4-2.1 5.2-2.5 1.7-2.6 4.2-1.9 4.2-0.25-1.1 0.92 1 4.2 2.2 1.8 2.9 0.21 0.52-3.9-1.2-2.3-3-1.3 2.2-3.3 0.96-3.2-1.1-1.2 2.5-1.6 2.9-3.2 0.32-2 3.9-1.7 5.3-3.4-1.7-2.2 1.8-2.7 4-3.3 2.6 3.7 2.3-6.3 0.24-5.3-1.3 1.2 0.97 4.8-1.3 4.9-3 0.72 0.47-3.5 0.76-5.2 0.82-2.6 4-7 3.3-8.6-1.9 3.3-3.8 6.7-5.6 10-1.2-5-4.4 0.66-6.9-0.2-2.4-3-7.3-4.4-10-1.5-3.5 1.3-8.3 1.5-12 2.5-2 1.5-2.7 0.062-0.65-0.48-2.2-1.8-1.8-2.5 0.65-3.9 3.1-1.5 6.2-3.6 9.5-5.1 5.9-2.7 12-6 18-8.7 5.7-3.1 12-5.4 18-8.5 0.15-0.38 2.1-0.033 1.5-0.9zm-51 30c-1.8 1.2-3.9 2.2-1.1-0.22 0.97-0.65-0.5-2 0.95-0.57zm0.2-1.2c-0.78-1.2-0.0042-1.9 0 0zm0.5-1.6c0.69 2-1.4 0.34 0 0zm-2.4-3.7c1.6 1.2 1.5 3.6 0 1.2-1.5-1.3 0.54-3 0-1.2zm-0.7-2.3c-1.2-0.63-0.83-2.3 0 0zm1.2-1.5c0.93 1.8-1-0.95 0 0zm3 4.8c-0.53 1.1-1.5-2.4-1.9-2.7 0.66-0.18 2 2.2 1.9 2.7zm1.6 2.1c-0.62-0.79-0.21-0.8 0 0zm0.9 0.1c-0.84-0.18-1.1-1.1 0 0zm13-10c-3.7 1.9-7.4 4-11 5.8-2.3 1.6-4.8 2.6-5.7-1.2-2.8-2.1 1.6-2.7 3-2.8 1.5 0.74 6.1-1.3 8.6-1.3 1-0.048 9.3-2.1 5.1-0.5z"/>
</svg>
