<svg enable-background="new 0 0 100 43" version="1.0" viewBox="0 0 100 43" xml:space="preserve" xmlns="http://www.w3.org/2000/svg">
	<path d="m45 15c-3.9-1.6 5.3-3.7-0.33-3.6-4.5-0.48-9-1.7-14-1.7-4.2-0.72-8.5-1.2-13-2.2-5.1-0.71-10-1.7-15-2.6-3.6 0.87-4.5-5.3-0.59-4.3 3.4-0.26 6.8 0.75 10 1.3 2.9 0.34 6.6 1.1 9.8 1.6 5.6 0.97 11 2.2 17 3.1 3 0.53 6.5 1.1 9.7 2 2 0.77 6 0.35 5.6-2.5 0.3-1.2 4-1.7 0.64-1.3-0.87-1.4-4.7 0.48-4.8-0.98 3.5 0.03 5.5-1.2 8.9-1.4 2.4-1.7 6.3 1 3 3 0.79 0.58 2.9-0.18 4.1-0.12 2-0.75 6.4 0.57 9.4 0.33 2.4-1.4 4.6 0.64 7.6 0.21 2.8 0.09 5.7 0.28 8.5 0.24 2.1 2-0.53 6.6-0.19 6.6 2.6 1 8.4-1.4 8 3.1-0.33 2.8-1.2 5-2 7.8-1.8 3.3-2.6 8-7 8.5-8.1 3.5-16 7-24 10-3.2-0.19-6.9-0.27-9.7-2.2-1.9-1.1-3.6-2.9-6-2.6-0.42 3.4-4.3 0.65-6.5 0.68-3.7-0.81-7.5-0.85-11-0.88-3.2-0.34-6.1-1.5-8.7-3.3-3-1.1-4.5-3.8-7.4-4.3 0.2-3.5 1.6-7 5.1-8.3 4-1.7 8.2-3 12-4.4 3.6-0.53 7-1.6 10-2.3z"/>
</svg>
