<svg enable-background="new 0 0 100 79" version="1.0" viewBox="0 0 100 79" xml:space="preserve" xmlns="http://www.w3.org/2000/svg">
<path d="m100 64c0.053-3.8-0.045-7.8 0.012-12-3-2 0.34-7.4-3.9-7.5-2-1.8-0.78-5-1.1-7.4-0.18-2.1 0.36-4.3-0.3-6.3-3.1-2.7-7.3-2-11-2.9 2.2-0.62-0.63-3.8-2.5-1.5-2.2 1.6-7.2-1.4-10-1.3-1.9 0.45-3.5-1.7-3.8-1.6 1.9-2 6.4 0.24 6.5-4 0.72-2.7-1.1-6.6-4.6-5.7-3.1-1.7-8-0.42-10-1.7-0.067-4.4 0.13-8.9-0.1-13-0.23 4.6-0.034 9.2-0.1 14-1.4 2.1-6.7-1.7-6 1.3 2.2 0.61 4.5-0.2 2.6 2.4 0.79 2.7 3.7 3.7 3.1 6.6 0.67 2.6-2.9 0.96-4.2 2.7-2.3 0.2-4.6 0.12-6.6 0.78-1.9-0.021-6.1 1.9-5.9-0.76-1.2-2.2-4.4-0.72-3.3 1.1-1.4 0.24 1.1 3.1-1.6 4-1.5 1.9-2.9 3.8-3.8 0.86-1.5 0.92 0.17 5.3-2.9 2.7-3-0.82 0.15 3.9-3.2 2.7-5.6-0.037-11 1.2-16 3.1-3 1.8-9.3 1.4-9.6 5.6 1.5 2.6-1.6 7.1 2 7.8 3.3-0.55 3.5 2.1 0.11 1.2-3.1-0.88-3.8 1.6-2.9 4.3 3.9-8.5e-4 6.6 1.7 4.2 5.6 2 3.3 3.2 9.5 8.8 9.9 4.9 1.4 11-0.21 13-5.2 1.4-2.1 5.4-0.56 7.9-0.93 4.4 0.26 2.5 7.1 6.6 8.7 3 2.2 7 2 11 1.6 3.8-0.56 6-4.6 7-8-0.065-3.6 2.8-1.5 5.1-1.8 3.3 0.64 5.4-2.6 6.5-5.2 3.8-0.52 7.9-0.34 12 0.23 3.7 0.11 1.9 7.2 6.5 7.2 4.8 1.5 9.2-1.3 9.7-6.3 1-0.39 3.2 0.9 2.4-1.3zm-61-30c1.9-1.6 5.8-1.5 2-0.025-0.67 0.081-1.3 0.014-2 0.025zm3.8-2c-1.9 0.79-6 2.3-2.3-0.5 0.32-0.54 3.6-0.35 2.3 0.5zm10 1.5c-1.5 0.22-0.68-1.7 0 0zm1.2-0.7c0.47 1.9-3.5-1 0 0z"/>
</svg>
