<svg enable-background="new 0 0 50 50" version="1.1" viewBox="0 0 50 50" xml:space="preserve" xmlns="http://www.w3.org/2000/svg">
<g transform="matrix(.64 0 0 .64 -.092 .055)" stroke-width="1.6">
	<path d="m32 20c6.6-5.6 12-12 17-20 0.1-0.2 0.1-0.4-0.1-0.5-0.1-0.1-0.3-0.1-0.5 0-1.6 1.2-4 3-6.5 4.2-3.2 1.6-6.6 2.3-8.3 2.5-0.7 0.1-1.4 0.5-1.8 1.2-0.9 1.3-2.5 3.9-4.6 6.7 1 1.3 2 2.6 3.2 3.8 0.6 0.7 1.2 1.3 1.8 2z"/>
	<path d="m19 24c-2.8 3.1-4.8 5.2-6 6.4l-0.5-0.5c-0.6-0.7-1.7-0.7-2.3 0s-0.6 1.7 0 2.4l0.2 0.2c-0.6-0.1-1.2 0.1-1.6 0.6-0.5 0.5-0.7 1.3-0.5 2-0.7-0.2-1.4 0-1.9 0.5s-0.7 1.3-0.5 2c-0.7-0.2-1.4 0-1.9 0.5s-0.7 1.2-0.6 1.8l-0.3-0.3c-0.6-0.7-1.7-0.7-2.3 0s-0.6 1.7 0 2.4l6.7 7.1c0.3 0.3 0.6 0.4 1 0.5l3.8 0.4h0.2c0.8 0 1.5-0.6 1.6-1.5s-0.5-1.8-1.4-1.9l-3.2-0.4-2.3-2.4h0.4c0.5 0 1-0.2 1.4-0.6 0.5-0.5 0.7-1.3 0.5-2 0.2 0 0.3 0.1 0.5 0.1 0.5 0 1-0.2 1.4-0.6 0.5-0.5 0.7-1.3 0.5-2 0.2 0 0.3 0.1 0.5 0.1 0.5 0 1-0.2 1.4-0.6 0.4-0.5 0.6-1.1 0.6-1.7l0.5 0.5 0.4 3.3c0.1 0.9 0.8 1.5 1.6 1.5h0.2c0.9-0.1 1.5-0.9 1.4-1.9l-0.4-3.8c0-0.4-0.2-0.7-0.5-1l-1-1 6.7-6.9c-1.5-1-2.9-2.1-4.3-3.2z"/>
	<path d="m50 40c-0.6-0.7-1.7-0.7-2.3 0l-0.3 0.3c0.1-0.7-0.1-1.3-0.6-1.8s-1.3-0.7-1.9-0.5c0.2-0.7 0-1.5-0.5-2s-1.3-0.7-1.9-0.5c0.2-0.7 0-1.5-0.5-2-0.2-0.2-0.4-0.3-0.6-0.4-0.3-0.1-0.7-0.2-1-0.2l0.2-0.2c0.6-0.7 0.6-1.7 0-2.4s-1.7-0.7-2.3 0l-0.5 0.5c-1.6-1.6-4.7-4.9-9.3-10-4.2-4.7-7.7-10-9.1-12-0.4-0.6-1.1-1.1-1.8-1.2-1.7-0.2-5.1-0.9-8.3-2.5-2.6-1.5-5-3.3-6.6-4.5h-0.2c-0.1 0-0.2 0-0.2 0.1-0.2 0.1-0.2 0.3-0.1 0.5 5.9 10 14 18 23 25l0.4 0.3 8 8.3-1 1c-0.3 0.3-0.4 0.6-0.5 1v0.1l-0.4 3.8c-0.1 0.9 0.5 1.8 1.4 1.9h0.2c0.8 0 1.5-0.6 1.6-1.5l0.2-2 0.8-0.8c0.1 0.2 0.2 0.5 0.4 0.7 0.4 0.4 0.9 0.6 1.4 0.6 0.2 0 0.3 0 0.5-0.1-0.2 0.7 0 1.5 0.5 2 0.4 0.4 0.9 0.6 1.4 0.6 0.2 0 0.3 0 0.5-0.1-0.2 0.7 0 1.5 0.5 2 0.4 0.4 0.9 0.6 1.4 0.6h0.4l-2.3 2.4-3.2 0.4c-0.9 0.1-1.5 0.9-1.4 1.9 0.1 0.9 0.8 1.5 1.6 1.5h0.2l3.8-0.4c0.4 0 0.7-0.2 1-0.5l6.9-7.1c0.8-0.7 0.8-1.8 0.1-2.4z"/>
</g>
<g transform="matrix(.043 0 -.015 .04 32 13)" stroke-width="24"><path d="m240 313 21 1c2 0.67 5 1.7 9 3 9.3 4.7 16 12 21 22 3.3 6.7 5 21 5 42v92h93v-58c-3.9e-4 -42 1-66 3-72 2-5.3 5.7-11 11-16 5.3-6 11-10 17-12 8.7-2.7 17-3.3 25-2 4 0.67 8.3 2 13 4 9.3 4.7 16 12 21 22 3.3 6.7 5 21 5 42v92h26c17 5.8e-4 26 0.33 29 1 21 4 33 16 38 36 0.67 3.3 1 7 1 11-5.8e-4 21-9.3 35-28 44-3.3 1.3-7 2.3-11 3-2.7 0.67-12 1-29 1h-26v105h26c17 3.8e-4 26 0.33 29 1 21 4 33 16 38 36 0.67 3.3 1 7 1 11-5.8e-4 21-9.3 35-28 44-3.3 1.3-7 2.3-11 3-2.7 0.67-12 1-29 1h-26v59c-4.8e-4 39-0.33 60-1 63-3.3 20-15 33-35 38-4 0.67-8 1-12 1-20 1.2e-4 -34-9.3-43-28-1.3-3.3-2.7-7-4-11-3.9e-4 -3.3-3.9e-4 -24 0-63v-59h-93v59c-3e-4 39-3e-4 60 0 63-4 20-16 33-36 38-4 0.67-8 1-12 1-21 1.2e-4 -35-9.7-44-29-1.3-3.3-2.3-6.7-3-10-2e-4 -3.3-2e-4 -24 0-63v-59h-28c-18 2.8e-4 -28-0.67-31-2-22-6.7-34-22-35-46-1.1e-4 -22 12-37 35-46 2.7-0.67 13-1.3 31-2h28v-105h-28c-18 4.9e-4 -28-0.67-31-2-22-9.3-34-25-35-46-1.1e-4 -23 12-38 35-46 2.7-1.3 13-2 31-2h28v-58c-2e-4 -42 1-66 3-72 2-5.3 5.7-11 11-16 7.3-7.3 16-12 25-14m149 309v-53h-93v105h93v-52"/></g></svg>
