<svg width="4121" height="4096" viewBox="0 0 4121 4096" fill="none" xmlns="http://www.w3.org/2000/svg">
    <path d="M3 575V7.5H333.5H720.5M3 575H720.5M3 575L5.93344 1136M720.5 575V7.5M720.5 575L1253.58 1002.5M720.5 7.5H2263.5M720.5 7.5H1510.5M4118 575V7.5L3427 2.5M4118 575H3433M4118 575V1507.5M3433 575L3244.5 942L2870.28 1023M3433 575L3427 2.5M401 4093H3V3569M401 4093V3569M401 4093H1579M401 3569H3M401 3569L856.5 3493M3 3569L11.1938 2747.5M3535 4093H4118V3720M3535 4093L3519.5 3720M3535 4093H2619M4118 3720H3519.5M4118 3720V2191M4118 3720V2794.5M3519.5 3720L3483 3269.5L2859.5 3231.25M2263.5 7.5H2390H2748.5M2263.5 7.5H1510.5M2263.5 7.5L2245.5 873M11.1938 2142H257H501.5H1165H1348M11.1938 2142V2747.5M11.1938 2142L8.66295 1658M1907.5 2202L1670 2142H1348M1907.5 2202L2692.5 2230H2914M1907.5 2202L1848.5 2747.5L1973.07 3147M1907.5 2202L1842.5 1828M4118 2191L3275 2230H3094.5M4118 2191V2794.5M4118 2191V1507.5M2148 3429L2178 3681L2225 4093M2148 3429L1973.07 3147M2148 3429L2481.5 2671M2914 2230L2481.5 2671M2914 2230H3094.5M2688.5 2985L2481.5 2671M2688.5 2985L3310 2571L4118 2794.5M2688.5 2985L2859.5 3231.25M2619 4093L3030.5 3477.5L2859.5 3231.25M2619 4093H2225M11.1938 2747.5L472.5 2529L1165 2671M1165 2671L1348 2142M1165 2671L856.5 3493M1165 2671L1408.5 2915.5L1973.07 3147M1348 2142L1197 1658M1579 4093L856.5 3493M1579 4093H2225M8.66295 1658L592 1758.5L1197 1658M8.66295 1658L5.93344 1136M1197 1658L1858 1122M1197 1658V1517.5L1225 1029.5M1858 1122L2040 975.5L2245.5 873M1858 1122L1842.5 1651V1828M1858 1122V764.5L1678 601.5M1225 1029.5L450 1457L5.93344 1136M1225 1029.5L1253.58 1002.5M1510.5 7.5L1678 601.5M2245.5 873L2593 1507.5M2245.5 873L2485 682.5L2792.5 701.5M3094.5 2230L2987.5 1507.5M2987.5 1507.5H4118M2987.5 1507.5H2593M2987.5 1507.5L2870.28 1023M2593 1507.5L1842.5 1828M2792.5 701.5L2748.5 7.5M2792.5 701.5L2870.28 1023M2748.5 7.5L3427 2.5M1678 601.5L1253.58 1002.5"
          stroke="#000000" stroke-width="1"/>
</svg>
