<?xml version="1.0" encoding="UTF-8" standalone="no"?>
<svg
   xmlns="http://www.w3.org/2000/svg"
   id="svg11"
   version="1.1"
   viewBox="0 0 4001.7928 1184.8927"
>
  <path
     d="m 1885.5525,147.25386 c 0,0 -16.34,25 -16.34,25 0,0 -54.33,87 -54.33,87 -36.62,61.03 -79.08,140.99 -102.34,208 -15.24,43.91 -26.21,84.08 -25.66,131 0.34,28.83 10.78,60.11 31.09,80.96 11.38,11.69 26.75,20.46 41.91,26.23 12.53,4.76 31.58,8.36 45,9.77 0,0 9,0 9,0 5.93,0.53 15.9,2.88 20.78,-1.39 5.58,-4.89 4.21,-15.73 4.22,-22.57 0,0 0.96,-13 0.96,-13 1.91,-43.75 12.42,-87.79 29.76,-128 0,0 15.16,-33 15.16,-33 1.94,-3.33 6.43,-9.2 10.89,-6.3 3.96,2.58 4.7,15.58 5.36,20.3 0,0 8.95,54 8.95,54 10.66,62.72 31.35,133.03 55.12,192 10.86,26.93 23.58,53.05 36.55,79 0,0 18.1,35.96 18.1,35.96 10.4,14.53 27.01,-1.84 25.54,-12.96 0,0 -7.06,-22 -7.06,-22 0,0 -14.31,-44 -14.31,-44 0,0 -36.87,-127 -36.87,-127 -15.36,-56.79 -29.01,-114.31 -40.55,-172 -5.86,-29.27 -13.3,-65.69 -16.44,-95 0,0 -4.2,-52 -4.2,-52 0,0 -0.96,-13 -0.96,-13 0,0 -1,-21 -1,-21 0,0 0,-59 0,-59 0,0 1,-17 1,-17 0,0 2.83,-38 2.83,-38 5.46,-56.36 16.68,-112.27 37.77,-165.000002 7.04,-17.59 15.21,-34.77 25,-51.0000006 2.11,-3.48999997 8.52,-15.7299994 13.89,-11.3599996 2.57,2.09 3.18,10.0599996 3.64,13.3599996 0,0 5.29,37.0000006 5.29,37.0000006 0,0 24.58,144.000002 24.58,144.000002 26.49,134.6 61.16,246.15 102.66,376 0,0 31.62,102 31.62,102 0,0 8.72,30 8.72,30 1.14,3.99 2.45,10.77 4.7,13.96 5.31,7.52 11.75,5.55 19.3,4.04 14.28,-2.86 25.6,-5.94 39,-11.86 29.82,-13.18 51.01,-35.13 61.33,-66.14 2.74,-8.23 4.66,-15.27 4.67,-24 0,0 0,-38 0,-38 -0.14,-11.67 -3.45,-32.26 -5.8,-44 -8.2,-41.02 -19.56,-70.16 -36.89,-108 -19.04,-41.56 -40.23,-81.83 -62,-122 0,0 -25.73,-47 -25.73,-47 0,0 -54.92,-88 -54.92,-88 -3.73,-5.73 -16.57,-24.74 -17.75,-30 -0.69,-2.53 -0.38,-3.56 0,-6 6.2,1.8 9.47,6.34 13.51,11 0,0 16.86,19 16.86,19 0,0 67.93,79 67.93,79 52.36,66.49 101.18,136.49 141.48,211 0,0 16.62,34 16.62,34 0,0 25.7,58 25.7,58 11.1,26.91 22.59,55.02 30.57,83 0,0 8.29,31 8.29,31 0,0 5.34,23 5.34,23 2.44,11.29 6.77,29.93 6.79,41 0,0 0,17 0,17 -0.03,16.8 -7.78,40.52 -19.17,52.99 -3.97,4.34 -8.82,7.77 -13.83,10.81 -6.41,3.88 -15.78,8.02 -23,10.05 -12.88,3.61 -28.63,4.3 -42,4.15 0,0 -10,-1.04 -10,-1.04 0,0 -8,0 -8,0 -17.39,-1.79 -53.94,-11.07 -71,-16.63 0,0 -30,-10.02 -30,-10.02 -3.98,-1.42 -12.21,-5.04 -16,-5.16 -10.07,-0.33 -10.08,8.54 -10,15.85 0,0 1,14 1,14 0,0 0,31 0,31 0,0 -0.91,10 -0.91,10 -2.84,38.85 -15.5,77.25 -41.38,107 -11.69,13.44 -31.74,29.02 -46.71,39 -22.76,15.15994 -50.24,27.87994 -78,28.95994 -7,0.27 -14.26,-1.86 -21,-3.59 -13.85,-3.56 -26.96,-8.19 -40,-14.0699 -22.11,-9.97004 -42.54,-23.42004 -59.96,-40.39004 -34.17,-33.28 -53.62,-79.84 -62.84,-125.91 -2.46,-12.31 -6.05,-35.81 -6.2,-48 -0.08,-7.24 0.61,-21.29 -7.02,-24.78 -4.52,-2.08 -14.47,3.69 -18.98,5.63 0,0 -51,19.15 -51,19.15 -41.37,13.79 -100.01,25.38 -143,15.65 -32.65,-7.39 -56.94,-26.93 -57,-62.65 0,0 0,-14 0,-14 0,0 0.91,-10 0.91,-10 3.62,-52.9 16.85,-104.28 35.04,-154 40.24,-110.03 109.44,-222.69 182.45,-314 25.36,-31.71 51.22,-63.01 78.6,-93 0,0 15.58,-17 15.58,-17 4.98,-5.74 9.48,-12.08 17.42,-13 -0.88,6.3 -4.87,10.81 -8.33,16 z m -229.91,63.02 c -0.95,2.64 -5.41,7.63 -7.34,9.98 0,0 -13.05,17 -13.05,17 0,0 -31.63,42 -31.63,42 0,0 -21.32,24 -21.32,24 -4.01,4.57 -16.51,15.98 -21.42,20.08 -2.52,2.1 -6.75,6.04 -9.98,6.55 -7.36,1.17 -4.23,-8.87 -3.37,-12.63 3.45,-15.04 7.71,-26.23 14.6,-40 3.57,-7.14 12.36,-23.2 17.27,-28.83 11.79,-13.55 26.95,-22.08 42.48,-30.48 0,0 25,-12.87 25,-12.87 3.83,-0.9 10.92,-0.86 8.76,5.2 z m 698.24,-5.48 c 0,0 25,12.6 25,12.6 16.02,8.88 31.18,16.9 43.48,31.03 5.93,6.8 16.06,26.14 20.26,34.83 5.19,10.72 9.27,23.37 11.84,35 0.69,3.17 3.07,10.69 -1.73,11.63 -3.23,0.63 -6.52,-2.19 -8.85,-4.06 0,0 -16,-14.4 -16,-14.4 -23.85,-21.61 -42.16,-48.55 -61.37,-74.17 0,0 -17.74,-23 -17.74,-23 -3.11,-3.91 -5.08,-6.94 0,-9.46 2.25,-0.29 2.98,-0.55 5.11,0 z m -813.03,65.46 c 0,0 -8.72,18 -8.72,18 -4.97,9.92 -11.68,23.35 -14.36,34 0,0 -5.69,37 -5.69,37 -1.17,5.75 -6.89,21.19 -1.77,25.24 2.74,2.17 5.31,0.53 7.56,-1.39 0,0 6.29,-6.76 6.29,-6.76 0,0 8.72,-7.81 8.72,-7.81 0,0 25,-18 25,-18 0,0 34,-24.29 34,-24.29 0,0 13,-9.73 13,-9.73 1.73,-1.07 4.42,-2.57 6.44,-1.19 2.74,1.93 1.09,8.41 0,10.93 -2.68,6.45 -13.56,22.14 -18.1,28 -23.54,30.32 -57.4,50.1 -84.34,77 -4.02,4.02 -14.41,15.31 -19,17.15 -4.2,1.67 -8.82,0.76 -9.92,-4.19 0,0 0,-5.96 0,-5.96 0,0 0,-61 0,-61 -0.08,-18.72 -0.4,-37.03 6.01,-55 5.55,-15.56 15.34,-28.43 26.91,-40 6.42,-6.42 14.56,-16.02 22.98,-19.29 5.08,-0.33 6.21,2.65 4.99,7.29 z m 934.03,-1.7 c 5.03,4.29 20.06,19.54 24.19,24.7 23.94,29.87 22.81,54.13 22.73,90 0,0 0,55 0,55 0,0 0,5.96 0,5.96 -1.1,4.95 -5.72,5.86 -9.92,4.19 -4.51,-1.81 -14.11,-12.26 -18,-16.15 -26.99,-26.98 -60.65,-46.96 -84.55,-77 -5.33,-6.7 -14.05,-19.46 -17.96,-27 -1.47,-2.83 -3.83,-9.53 -1.47,-12.39 1.87,-2.24 5.06,-0.53 6.98,0.65 0,0 17,12.62 17,12.62 0,0 59.99,43.7 59.99,43.7 4.18,3.67 14.97,19.43 19.27,9.31 1.89,-4.44 -2.76,-19.4 -3.86,-24.89 0,0 -4.82,-33 -4.82,-33 -1.93,-8.59 -6.88,-20.06 -10.83,-28 0,0 -11.16,-22 -11.16,-22 -1.91,-4.05 -3.27,-7.22 0,-10.94 4.78,-1.41 8.84,2.19 12.41,5.24 z m -1020.17,97.7 c 0,0 -0.83,16 -0.83,16 0,0 -0.96,10 -0.96,10 0,0 0,11 0,11 -0.01,20.6 5.43,33.27 7.68,52 0,0 1.28,32 1.28,32 0,0 -0.99,17 -0.99,17 0,0 0,15.98 0,15.98 0.51,2.63 1.94,4.99 4.99,3.85 2.92,-1.08 5.43,-5.3 7.05,-7.83 0,0 12.95,-20 12.95,-20 12.5,-18.66 31.23,-41.53 48,-56.28 0,0 16,-13.82 16,-13.82 1.61,-1.21 4.79,-3.68 6.85,-3.6 4.72,0.17 2.56,8.13 1.86,10.7 -3.04,11.02 -7.28,21.68 -12.19,32 -9.5,19.91 -24.37,36.61 -37.64,54 -12.04,15.8 -21.24,30.24 -30.13,48 0,0 -11.98,26 -11.98,26 -1.38,3.14 -3.45,7.67 -7.74,6.34 -4.74,-1.46 -6.6,-10.06 -8.03,-14.34 0,0 -13.02,-41 -13.02,-41 -14.77,-48 -24.7,-103.81 -5.78,-152 0,0 9.38,-22 9.38,-22 2.03,-4.66 3.69,-9.6 7.62,-12.96 6.52,-1.99 6.07,4.29 5.63,8.96 z m 1104.31,1 c 5.81,13.05 11.97,26.1 15.49,40 2.75,10.9 5.35,22.74 5.37,34 0,0 0,19 0,19 -0.04,27.95 -11.17,67.96 -19.28,95 0,0 -11.72,36 -11.72,36 -1.25,3.59 -3.76,10 -8.81,8.34 -3.43,-1.12 -5.32,-7.26 -6.61,-10.34 0,0 -12.83,-27 -12.83,-27 -20.1,-39.93 -48.59,-63.61 -64.78,-96 -5.08,-10.16 -9.32,-21.07 -12.38,-32 -0.77,-2.7 -2.83,-9.1 0,-11.18 2.23,-1.63 5.64,1.07 7.41,2.34 0,0 18,15.42 18,15.42 18.83,16.33 39.16,43.44 53,64.42 0,0 10.38,15.94 10.38,15.94 1.46,1.66 3.87,4.01 6.31,2.89 3.55,-1.62 2.31,-11.43 2.31,-14.83 0,0 0,-7 0,-7 0,0 -1,-15 -1,-15 -0.02,-13.03 0.28,-26.1 2.27,-39 0,0 3.73,-17 3.73,-17 2.41,-11.82 3.14,-23.96 3,-36 0,0 -0.96,-10 -0.96,-10 0,0 0,-10 0,-10 -0.11,-5.69 -2.87,-13.05 0.7,-17.99 5.98,-2.02 8.43,5.58 10.4,9.99 z m -2541.139996,94 c 0,0 26,0 26,0 0,0 85.999996,0 85.999996,0 0,0 281,0 281,0 0,0 178,0 178,0 0,0 15,1 15,1 0,0 729,0 729,0 3.88,0.01 10.7,-0.69 10.34,5.04 -0.23,3.62 -4.38,11.5 -6.09,14.96 0,0 -9.56,23 -9.56,23 -6.01,16.88 -8.86,32.41 -11.77,50 0,0 -3.92,31 -3.92,31 -0.13,11.67 1.55,29.04 7.97,39 2.46,3.82 6.38,7.39 10.03,10.08 3.81,2.8 8.38,5.44 13,6.58 8.58,2.12 19.95,-0.21 22.86,9.34 0.22,1.85 0.14,5.02 0,7 0,0 0,46 0,46 0.19,30.13 16.03,75.71 28.92,103 0,0 11.34,23 11.34,23 1.14,2.78 2.56,6.93 -1.27,8.36 -2.7,1.01 -6.37,-0.91 -8.85,-1.94 0,0 -21,-8.43 -21,-8.43 -28.18,-11.73 -60.17,-30.93 -85,-48.7 -27.37,-19.59 -68.53,-54.64 -90.83,-79.29 -15.91,-17.58 -35.05,-42.69 -49.29,-62 0,0 -28.86,-40 -28.86,-40 -3.03,-4.41 -8.63,-14.42 -13.06,-16.69 -2.92,-1.49 -6.75,-1.3 -9.96,-1.31 0,0 -55,0 -55,0 0,0 -17,1 -17,1 0,0 -674,0 -674,0 -10.84,-0.02 -20.84,-4.95 -31,-8.33 0,0 -55,-18.34 -55,-18.34 0,0 -180.999996,-59.33 -180.999996,-59.33 0,0 -66,-21.67 -66,-21.67 0,0 -9.0000001,-3 -9.0000001,-3 -3.9,-1.3 -14.07,-3.4 -6.87,-8.48 4.76,-1.38 9.9400001,-0.85 14.8700001,-0.85 z m 3454.999996,0.11 c 0,0 129,0 129,0 0,0 389,0 389,0 2.92,-0.1 9.17,-0.46 10.29,3.13 0.35,1.1 -0.08,1.94 -0.88,2.69 -1.35,1.26 -6.46,2.75 -8.41,3.4 0,0 -17,5.67 -17,5.67 0,0 -64,21 -64,21 0,0 -177,58 -177,58 0,0 -53,17.67 -53,17.67 -10.16,3.38 -20.16,8.31 -31,8.33 0,0 -674,0 -674,0 0,0 -17,-1 -17,-1 0,0 -55,0 -55,0 -3.21,0.01 -7.04,-0.18 -9.96,1.31 -4.43,2.27 -10.03,12.28 -13.06,16.69 0,0 -28.86,40 -28.86,40 -14.24,19.31 -33.38,44.42 -49.29,62 -22.3,24.65 -63.46,59.7 -90.83,79.29 -24.83,17.77 -56.82,36.97 -85,48.7 0,0 -21,8.43 -21,8.43 -2.48,1.03 -6.15,2.95 -8.85,1.94 -3.83,-1.43 -2.41,-5.58 -1.27,-8.36 0,0 11.34,-23 11.34,-23 12.89,-27.29 28.73,-72.87 28.78,-103 0,0 0,-48 0,-48 0.22,-15.62 12.18,-11.67 23,-14.34 4.62,-1.14 9.19,-3.78 13,-6.58 3.65,-2.69 7.57,-6.26 10.03,-10.08 6.42,-9.96 8.1,-27.33 7.97,-39 0,0 -3.92,-31 -3.92,-31 -2.91,-17.59 -5.76,-33.12 -11.77,-50 0,0 -9.56,-23 -9.56,-23 -1.71,-3.46 -5.86,-11.34 -6.09,-14.96 -0.36,-5.73 6.46,-5.03 10.34,-5.04 0,0 496,0 496,0 0,0 160,0 160,0 0,0 52,0 52,0 0,0 30,-0.89 30,-0.89 0,0 66,0 66,0 z m -1944.6,105.89 c 0,0 -5.75,29 -5.75,29 -6.29,27.81 -12.28,55.72 -20.67,83 0,0 -8.65,28 -8.65,28 -2.32,7.12 -5.23,13.43 -5.33,21 -0.14,11.59 0.6,16.04 -1.43,28 -0.59,3.46 -1.28,8.97 -5.62,9.5 -5.42,0.65 -9.08,-5.75 -11.62,-9.5 0,0 -21.33,-31 -21.33,-31 -14.64,-21.96 -29.84,-44.54 -39.99,-69 -7.58,-18.29 -11.97,-38.33 -13.97,-58 0,0 0,-9 0,-9 0,0 -1.04,-10 -1.04,-10 0,0 0,-23 0,-23 0,0 1,-14 1,-14 0,0 0,-5 0,-5 0,-2.87 -0.33,-15.14 4.95,-13.51 3.36,1.04 5.63,8.41 6.85,11.51 5.7,14.53 6.64,22.49 10.08,37 4.44,18.67 14.74,41.75 23.37,59 2.77,5.55 12.14,23.26 13.22,28 0.6,2.62 0.53,5.33 0.53,8 0.01,3.27 -0.42,9.16 1.02,11.96 1.42,2.75 4,4.06 5.68,7.13 2.48,4.52 0.73,5.56 5.3,9.91 2.88,-21.83 6.41,-44.12 13.69,-65 6.76,-19.35 14.82,-32.85 25.63,-50 3.51,-5.56 15.04,-25.42 18.78,-28.61 2.32,-1.98 4.07,-2.56 6.9,-3.39 1.54,5.88 -0.43,12.15 -1.6,18 z m 1013.9,119.09 c 1.68,-3.07 4.26,-4.38 5.68,-7.13 1.44,-2.8 1.01,-8.69 1.02,-11.96 0,-2.67 -0.07,-5.38 0.53,-8 1.08,-4.74 10.45,-22.45 13.22,-28 8.63,-17.25 18.93,-40.33 23.37,-59 3.44,-14.51 4.38,-22.47 10.08,-37 1.22,-3.1 3.49,-10.47 6.85,-11.51 5.28,-1.63 4.95,10.64 4.95,13.51 0,0 0,5 0,5 0,0 1,13 1,13 0,0 0,24 0,24 0,0 -1.04,10 -1.04,10 0,0 0,9 0,9 -2,19.67 -6.39,39.71 -13.97,58 -10.15,24.46 -25.35,47.04 -39.99,69 0,0 -21.33,31 -21.33,31 -2.54,3.75 -6.2,10.15 -11.62,9.5 -4.34,-0.53 -5.03,-6.04 -5.62,-9.5 -2.03,-11.96 -1.29,-16.41 -1.43,-28 -0.1,-7.57 -3.01,-13.88 -5.33,-21 0,0 -8.65,-28 -8.65,-28 -8.39,-27.28 -14.38,-55.19 -20.67,-83 0,0 -5.75,-29 -5.75,-29 -1.17,-5.85 -3.14,-12.12 -1.6,-18 2.83,0.83 4.58,1.41 6.9,3.39 3.74,3.19 15.27,23.05 18.78,28.61 10.81,17.15 18.87,30.65 25.63,50 7.28,20.88 10.81,43.17 13.69,65 4.57,-4.35 2.82,-5.39 5.3,-9.91 z m -2098.3,-72.04 c 0,0 15,0 15,0 0,0 10,0.95 10,0.95 0,0 112,0 112,0 0,0 189,0 189,0 0,0 95,0 95,0 0,0 15,1 15,1 0,0 156,0 156,0 2.45,0 5.72,-0.13 8,0.74 3.23,1.23 6.57,4.8 8.99,7.26 6.4,6.53 12.1,13.86 17.81,21 2.5,3.12 10.62,11.14 5.87,14.91 -1.76,1.4 -10.04,3.49 -12.67,4.23 0,0 -28,7.74 -28,7.74 0,0 -88,24 -88,24 0,0 -107,29.27 -107,29.27 0,0 -32,9 -32,9 -3.02,0.82 -10.58,3.6 -13,3.51 -2.59,-0.09 -7.16,-2.34 -10,-3.22 0,0 -28,-9.11 -28,-9.11 0,0 -81,-26.66 -81,-26.66 0,0 -163,-53.67 -163,-53.67 0,0 -50,-16.67 -50,-16.67 0,0 -29,-10.33 -29,-10.33 2.78,-4.08 4.22,-3.93 9,-3.95 z m 3094,14.28 c 0,0 -50,16.67 -50,16.67 0,0 -163,53.67 -163,53.67 0,0 -81,26.66 -81,26.66 0,0 -28,9.11 -28,9.11 -2.84,0.88 -7.41,3.13 -10,3.22 -2.42,0.09 -9.98,-2.69 -13,-3.51 0,0 -32,-9 -32,-9 0,0 -107,-29.27 -107,-29.27 0,0 -88,-24 -88,-24 0,0 -28,-7.74 -28,-7.74 -2.63,-0.74 -10.91,-2.83 -12.67,-4.23 -4.75,-3.77 3.37,-11.79 5.87,-14.91 5.71,-7.14 11.41,-14.47 17.81,-21 2.42,-2.46 5.76,-6.03 8.99,-7.26 2.28,-0.87 5.55,-0.74 8,-0.74 0,0 158,0 158,0 0,0 15,-1 15,-1 0,0 282,0 282,0 0,0 112,0 112,0 0,0 10,-0.96 10,-0.96 0,0 14,0 14,0 5.09,-0.01 6.98,-0.47 10,3.96 0,0 -29,10.33 -29,10.33 z m -1998.83,82.67 c 0,0 3.09,20 3.09,20 4.51,24.23 7.42,24.62 7.74,52 0,0 1,18 1,18 0,0 0.91,11 0.91,11 0,0 5.7,51 5.7,51 3.12,16.62 5.42,24.59 12.27,40 1.75,3.44 3.81,10.34 0,12.98 -5.34,3.39 -13.7,-3.28 -17.88,-5.93 0,0 -46,-29.72 -46,-29.72 -34.08,-22.97 -77.8,-55.37 -96.74,-92.33 -9.09,-17.74 -14.23,-43.1 -14.26,-63 -0.01,-6.36 -0.69,-15.05 1,-21 5.41,4.59 6.55,9.03 9.86,15 4.37,7.88 9.62,17.2 15.44,24 0,0 26.7,26 26.7,26 0,0 43.07,46 43.07,46 3.3,3.64 7.17,7.67 9.52,12 3.44,6.32 2.99,9.75 8.59,15.99 1.73,1.92 7.21,7.46 10.1,6.49 3.05,-1.03 2.79,-6.93 2.68,-9.48 0,0 -4.46,-30 -4.46,-30 -2.09,-15.83 -2.52,-41.29 0,-57 0,0 8.24,-36 8.24,-36 0.73,-3.91 2.37,-16.42 2.21,-20 -0.31,-4.69 -1.25,-5.02 0,-10 11.28,5.32 10.16,13.49 11.22,24 z m 1067.83,14 c -0.03,19.9 -5.17,45.26 -14.26,63 -18.94,36.96 -62.66,69.36 -96.74,92.33 0,0 -46,29.72 -46,29.72 -4.18,2.65 -12.54,9.32 -17.88,5.93 -3.81,-2.64 -1.75,-9.54 0,-12.98 6.85,-15.41 9.15,-23.38 12.27,-40 0,0 5.7,-51 5.7,-51 0,0 0.91,-10 0.91,-10 0,0 1,-19 1,-19 0.32,-27.38 3.23,-27.77 7.74,-52 0,0 3.09,-20 3.09,-20 1.06,-10.51 -0.06,-18.68 11.22,-24 1.56,6.15 -0.29,7.08 0,13 0,0 2.03,16 2.03,16 0,0 8.5,37 8.5,37 2.1,13.52 1.58,27.34 1.42,41 0,0 -5.56,42 -5.56,42 -0.45,2.89 -1.44,12.26 2.13,13.45 2.99,1 8.46,-4.47 10.25,-6.46 5.59,-6.24 5.15,-9.67 8.59,-15.99 2.35,-4.33 6.22,-8.36 9.52,-12 0,0 43.07,-46 43.07,-46 0,0 26.7,-26 26.7,-26 5.82,-6.8 11.07,-16.12 15.44,-24 3.31,-5.97 4.45,-10.41 9.86,-15 1.69,5.95 1.01,14.64 1,21 z m -1667,19.58 c 0,0 110,-30.73 110,-30.73 0,0 47,-13 47,-13 3.74,-1.01 18.29,-5.56 21,-5.28 4.2,0.44 9.77,5.21 13,7.85 0,0 24,20.43 24,20.43 0,0 38,33.32 38,33.32 3.34,3 11.5,9.28 11.63,13.83 0.15,5.62 -10.35,10.91 -14.63,13.58 0,0 -48,29.02 -48,29.02 0,0 -30,17.8 -30,17.8 -4.85,2.87 -12.51,7.85 -18,8.4 -6.78,0.68 -18.53,-2.83 -25,-5.11 0,0 -37,-13.35 -37,-13.35 0,0 -98,-35.92 -98,-35.92 0,0 -54,-21.42 -54,-21.42 0,0 0,-2 0,-2 0,0 60,-17.42 60,-17.42 z m 2128,40.84 c 0,0 -98,35.92 -98,35.92 0,0 -37,13.35 -37,13.35 -6.47,2.28 -18.22,5.79 -25,5.11 -5.49,-0.55 -13.15,-5.53 -18,-8.4 0,0 -30,-17.8 -30,-17.8 0,0 -48,-29.02 -48,-29.02 -4.28,-2.67 -14.78,-7.96 -14.63,-13.58 0.13,-4.55 8.29,-10.83 11.63,-13.83 0,0 38,-33.32 38,-33.32 0,0 24,-20.43 24,-20.43 3.23,-2.64 8.8,-7.41 13,-7.85 2.71,-0.28 17.26,4.27 21,5.28 0,0 47,13 47,13 0,0 110,30.73 110,30.73 0,0 60,17.42 60,17.42 0,0 0,2 0,2 0,0 -54,21.42 -54,21.42 z m -1891,60.27 c 0,0 44,-25.97 44,-25.97 5.53,-3.15 20.54,-13.39 26,-13.52 6.02,-0.15 19.01,8.05 25,11.05 0,0 60,31.5 60,31.5 0,0 47,25.03 47,25.03 5.13,2.71 13.73,6.28 12.76,13.22 -0.69,4.86 -6.27,8.76 -9.76,11.93 0,0 -25,22.14 -25,22.14 -4.06,3.69 -8,8.34 -14,7.59 0,0 -25,-7.64 -25,-7.64 0,0 -49,-16.33 -49,-16.33 0,0 -41,-13.36 -41,-13.36 -25.08,-8.18 -49.76,-16.9 -74,-27.33 0,0 0,-2 0,-2 0,0 23,-16.31 23,-16.31 z m 1586,48.98 c 0,0 -53,18 -53,18 0,0 -38,12.19 -38,12.19 -3.92,1.13 -12.42,4.44 -16,3.8 -4.35,-0.77 -8.79,-5.63 -12,-8.5 0,0 -24,-21.23 -24,-21.23 -3.49,-3.17 -9.07,-7.07 -9.76,-11.93 -0.97,-6.94 7.63,-10.51 12.76,-13.22 0,0 47,-25.03 47,-25.03 0,0 60,-31.5 60,-31.5 5.99,-3 18.98,-11.2 25,-11.05 5.46,0.13 20.47,10.37 26,13.52 0,0 44,25.97 44,25.97 0,0 23,16.31 23,16.31 0,0 0,2 0,2 -29.15,12.54 -55.05,20.91 -85,30.67 z m -1169.58,-74.67 c 0,0 16.57,26 16.57,26 16.88,28.91 19.91,49.91 30.35,80 5.45,15.7 12.71,30.35 20.44,45 0,0 20.27,34.00004 20.27,34.00004 1.79,2.8699 6.7,8.9999 2.62,11.8299 -2.46,1.7 -9.46,1.04 -12.67,1.26 0,0 -9,0.89 -9,0.89 0,0 -26,-1.91 -26,-1.91 -56.15,-5.19 -116.39,-39.98994 -151.92,-83.06994 0,0 -17.61,-25 -17.61,-25 0,0 -15.47,-19 -15.47,-19 -1.86,-2.78 -8.94,-12.17 -6.87,-15.4 2.24,-3.52 8.34,-0.36 10.45,1.63 0,0 5.43,5.6 5.43,5.6 8.25,7.62 17.64,14 26.99,20.17 0,0 36,20.86 36,20.86 0,0 63,35.54 63,35.54 0,0 24,14.64 24,14.64 8.49,6.01 12.48,12.85 16.04,15.65 6.08,4.77 14.1,1.39 12.63,-5.69 -0.84,-4.05 -7.35,-9.58 -10.23,-13 -5.76,-6.83 -12.06,-16.98 -16.07,-25 -13.9,-27.79 -21.53,-58.5 -26.62,-89 0,0 -3.92,-31 -3.92,-31 -0.45,-4.66 -2.19,-8.19 1.48,-11.87 5.3,-0.94 7.31,2.99 10.11,6.87 z m 827.41,0 c 0,0 -4.42,35 -4.42,35 -5.18,30.88 -12.7,61.84 -26.78,90 -4.01,8.02 -10.31,18.17 -16.07,25 -2.88,3.42 -9.39,8.95 -10.23,13 -1.47,7.08 6.55,10.46 12.63,5.69 3.56,-2.8 7.55,-9.64 16.04,-15.65 0,0 24,-14.64 24,-14.64 0,0 63,-35.54 63,-35.54 0,0 36,-20.86 36,-20.86 9.35,-6.17 18.74,-12.55 26.99,-20.17 0,0 5.43,-5.6 5.43,-5.6 2.11,-1.99 8.21,-5.15 10.45,-1.63 1.84,2.87 -3.28,9.98 -4.87,12.4 0,0 -17.47,22 -17.47,22 0,0 -5.87,9 -5.87,9 -31.84,48.67 -89.89,85.05004 -146.66,96.39994 -15.58,3.12 -35.26,5.27 -51,3.77 -4.73,-0.45 -15.14,1.31 -15.3,-4.28 -0.07,-2.77 3.95,-8.4099 5.49,-10.8899 0,0 13.96,-23.00004 13.96,-23.00004 16.96,-29.55 22.92,-44.79 32.83,-77 8.99,-29.22 13.7,-42.6 30.34,-69 3.96,-6.28 10.14,-17.92 16.68,-21.12 4.83,0.04 5.16,2.79 4.83,7.12 z m -967.16,101 c 8.5,12.67 21.19,27.53 32.33,37.91 6.67,6.22 14.71,9.26 14.98,19.09 0.13,4.66 0.48,13.4 -6,13.57 -5.1,0.12 -18.61,-5.52 -23.98,-7.52 0,0 -51,-19.1 -51,-19.1 0,0 -16,-6.38 -16,-6.38 -2.27,-1 -5.18,-2.17 -5.95,-4.78 -1.18,-4.01 2.54,-8.12 4.98,-10.79 0,0 17.39,-19 17.39,-19 0,0 14.19,-17.49 14.19,-17.49 1.46,-1.37 1.76,-1.21 3.43,-1.9 8.56,-0.66 9.68,7.52 15.63,16.39 z m 1120,-6 c 0,0 22.5,25 22.5,25 0,0 5.41,6 5.41,6 3.5,4.7 3.99,8.73 -1.63,11.68 0,0 -68.95,26.37 -68.95,26.37 -5.01,1.87 -21.31,8.84 -25.86,7.26 -4.46,-1.55 -4.23,-9.47 -4.12,-13.31 0.27,-9.83 8.31,-12.87 14.98,-19.09 10.38,-9.67 22.11,-23.27 30.28,-34.91 3.79,-5.39 8.66,-16.37 13.76,-19.22 8.01,-1.29 9.32,4.74 13.63,10.22 z m -888.67,24.01 c 0,0 22.08,24.99 22.08,24.99 30.39,33.03 56.47,57.60994 97.92,76.29994 0,0 25.98,9.72 25.98,9.72 3.02,1.17 6.79,3.58 2.72,6.57 -1.68,1.24 -13.03,5.18 -15.7,6.08 0,0 -35,10.2 -35,10.2 -51.29,12.83 -112.45,17.39 -163,-0.92 -21.45,-7.77 -45.92,-20.32 -61.72,-37.04 -3.31,-3.5 -9.5,-10.52 -10.91,-14.91 -0.95,-1.94 -1.81,-5.47 0,-6.94 2.91,-1.91 10.83,2.34 13.63,3.52 0,0 36,12.75 36,12.75 38.45,12.49 87.64,19.95 128,21.71 0,0 11,0.96 11,0.96 0,0 18,0 18,0 2.4,0 10.02,0.48 8.66,-3.95 -0.75,-2.46 -5.49,-4.97 -7.66,-6.19 0,0 -20,-12.57 -20,-12.57 -23.49,-16.82 -44.69,-42.18994 -55.19,-69.28994 0,0 -5.98,-18 -5.98,-18 -0.85,-3.44 -2.01,-5.82 0,-8.95 4.53,-1.26 8.1,2.96 11.17,5.96 z m 641.98,6.99 c -4.64,14.96 -9.73,26.8 -18.32,40 -11.33,17.40004 -27.69,33.50994 -44.66,45.40994 0,0 -18,11.02 -18,11.02 -1.99,1.15 -5.96,3.32 -6.66,5.62 -1.27,4.16 5.32,3.93 7.66,3.95 0,0 19,0 19,0 0,0 11,-0.96 11,-0.96 45.17,-1.97 89.78,-10 133,-23.32 0,0 33,-12 33,-12 2.61,-1.12 9.7,-4.98 11.96,-2.11 3.56,4.52 -5.14,14.27 -7.83,17.39 -11.49,13.3 -27.45,23.96 -43.13,31.75 -52.81,26.24 -119.67,25.73 -176,12.37 0,0 -48,-13.81 -48,-13.81 -2.82,-1 -15.82,-4.32 -12.93,-8.85 1.33,-2.08 8.42,-3.96 10.93,-4.79 0,0 25,-9.98 25,-9.98 21.8,-10.08 44.25,-26.8 62,-42.85994 13.16,-11.91 25.3,-25.39 36.87,-38.83 6.27,-7.28 14.72,-18.72 23.09,-23.1 7.64,-1.13 3.29,8.99 2.02,13.1 z m -637.98,175.99994 c 10.74,0.12 21.37,0.27 32,-1.44 26.62,-4.28 51.65,-15.79 77,-24.48 0,0 54,-15.71 54,-15.71 18.45,-4.55 43.04,-8.51 62,-10.53 0,0 30,-2.84 30,-2.84 0,0 70,0 70,0 0,0 17,1 17,1 36.66,0.06 79.61,-2.52 115,5.88 25.42,6.04 41.8,14.41 64,27.72 13.34,8 27.9,16.22 43,20.36 20.58,5.37 43.23,3.58 64,0 6.62,-0.98 14.49,-3.19 21,-2.94 2.81,0.11 7.42,0.85 5.83,4.91 -1.52,3.89 -16.62,12.86 -20.83,15.21 -26.42,14.74 -48.46,17.2 -78,16.86 -32.53,-0.38 -81.47,-18.66 -109,-35.62 0,0 -26,-19.38 -26,-19.38 -21.01,-13.92 -41.62,-22.04 -67,-22 -8.14,0.01 -17.39,2.5 -8.79,11.91 4.7,5.14 27.32,17.6 34.79,22.09 20.09,12.08 39.87,25.78 55.91,43 4.54,4.87 14.9,17.79 16.59,24 1.4,5.11 -0.03,11.1 -5.52,12.93 -4.82,1.61 -10.36,-1.03 -13.97,-4.14 0,0 -23.01,-24.79 -23.01,-24.79 -19.51,-19.6 -40.42,-37.98 -63,-54 -8.85,-6.28 -25.92,-17.5 -36,-20.64 -8.71,-2.71 -19.4,6.02 -27,9.88 -25.71,13.08 -49.14,30.32 -71,49.03 0,0 -22,19.73 -22,19.73 -3.68,3.64 -13.54,13.94 -17,16.35 -3.1,2.17 -13.96,6.05 -16.79,2.08 -1.61,-2.28 0.1,-6.24 1.16,-8.43 2.92,-6 8.53,-13.96 12.92,-19 20.41,-23.48 46.98,-40.13 73.71,-55.42 6.92,-3.96 16.42,-8.29 21.29,-14.62 2.14,-2.77 4.25,-6.4 1.93,-9.73 -3.46,-4.99 -11.16,-2.42 -16.22,-2.24 -16.7,0.6 -36.08,4.73 -50,14.2 0,0 -21,16.16 -21,16.16 -11.17,8.61 -23.59,16.63 -36,23.34 0,0 -18,8.86 -18,8.86 0,0 -30,8.33 -30,8.33 -11.51,2.74 -28.31,6.1 -40,6.12 0,0 -16,0 -16,0 -10.2,-0.02 -20.16,-2.1 -30,-4.63 -15.59,-4.01 -31.44,-11.83 -45,-20.42 -5.81,-3.68 -12.82,-6.71 -14,-13.95 0,0 48,7 48,7 z"
     stroke-width="1"
     id="LOGO full" />
</svg>
